<svg width="42" height="42" viewBox="0 0 42 42" fill="none" xmlns="http://www.w3.org/2000/svg">
<rect x="0.5" y="-0.5" width="41.0045" height="41" transform="matrix(1 0 0 -1 -0.0078125 41)" fill="white"/>
<rect x="0.5" y="-0.5" width="41.0045" height="41" transform="matrix(1 0 0 -1 -0.0078125 41)" stroke="#18B5DC"/>
<path d="M20.9967 26.1277C18.1583 26.1277 15.8689 23.8383 15.8689 21C15.8689 18.1617 18.1583 15.8723 20.9967 15.8723C23.835 15.8723 26.1244 18.1617 26.1244 21C26.1244 23.8383 23.835 26.1277 20.9967 26.1277ZM20.9967 17.6663C19.1624 17.6663 17.6629 19.1613 17.6629 21C17.6629 22.8387 19.158 24.3337 20.9967 24.3337C22.8353 24.3337 24.3304 22.8387 24.3304 21C24.3304 19.1613 22.8309 17.6663 20.9967 17.6663V17.6663ZM27.5302 26.3375C27.5302 25.6725 26.9946 25.1415 26.3342 25.1415C25.6692 25.1415 25.1381 25.677 25.1381 26.3375C25.1381 26.998 25.6737 27.5335 26.3342 27.5335C26.9946 27.5335 27.5302 26.998 27.5302 26.3375ZM30.9264 25.1236C30.8505 26.7258 30.4845 28.1449 29.3108 29.3142C28.1416 30.4834 26.7224 30.8494 25.1203 30.9297C23.469 31.0234 18.5198 31.0234 16.8686 30.9297C15.2709 30.8538 13.8517 30.4879 12.678 29.3186C11.5043 28.1494 11.1428 26.7302 11.0625 25.1281C10.9688 23.4768 10.9688 18.5276 11.0625 16.8764C11.1383 15.2742 11.5043 13.8551 12.678 12.6858C13.8517 11.5166 15.2664 11.1506 16.8686 11.0703C18.5198 10.9766 23.469 10.9766 25.1203 11.0703C26.7224 11.1462 28.1416 11.5121 29.3108 12.6858C30.4801 13.8551 30.846 15.2742 30.9264 16.8764C31.0201 18.5276 31.0201 23.4724 30.9264 25.1236V25.1236ZM28.7931 15.1047C28.445 14.2299 27.7712 13.5561 26.892 13.2035C25.5755 12.6814 22.4515 12.8019 20.9967 12.8019C19.5418 12.8019 16.4134 12.6858 15.1013 13.2035C14.2266 13.5516 13.5527 14.2255 13.2002 15.1047C12.678 16.4212 12.7985 19.5451 12.7985 21C12.7985 22.4549 12.6825 25.5833 13.2002 26.8953C13.5483 27.7701 14.2221 28.4439 15.1013 28.7965C16.4178 29.3186 19.5418 29.1981 20.9967 29.1981C22.4515 29.1981 25.5799 29.3142 26.892 28.7965C27.7667 28.4484 28.4406 27.7745 28.7931 26.8953C29.3153 25.5788 29.1948 22.4549 29.1948 21C29.1948 19.5451 29.3153 16.4167 28.7931 15.1047Z" fill="#18B5DC"/>
</svg>
