<svg width="43" height="43" viewBox="0 0 43 43" fill="none" xmlns="http://www.w3.org/2000/svg">
<rect width="42.0045" height="42" transform="translate(0.5 0.5)" fill="#5DCBE6"/>
<path d="M21.5045 16.3723C18.6661 16.3723 16.3767 18.6617 16.3767 21.5C16.3767 24.3383 18.6661 26.6277 21.5045 26.6277C24.3428 26.6277 26.6322 24.3383 26.6322 21.5C26.6322 18.6617 24.3428 16.3723 21.5045 16.3723ZM21.5045 24.8337C19.6703 24.8337 18.1708 23.3387 18.1708 21.5C18.1708 19.6613 19.6658 18.1663 21.5045 18.1663C23.3431 18.1663 24.8382 19.6613 24.8382 21.5C24.8382 23.3387 23.3387 24.8337 21.5045 24.8337V24.8337ZM28.038 16.1625C28.038 16.8275 27.5025 17.3585 26.842 17.3585C26.177 17.3585 25.6459 16.823 25.6459 16.1625C25.6459 15.502 26.1815 14.9665 26.842 14.9665C27.5025 14.9665 28.038 15.502 28.038 16.1625ZM31.4342 17.3764C31.3583 15.7742 30.9924 14.3551 29.8186 13.1858C28.6494 12.0166 27.2302 11.6506 25.6281 11.5703C23.9769 11.4766 19.0276 11.4766 17.3764 11.5703C15.7787 11.6462 14.3595 12.0121 13.1858 13.1814C12.0121 14.3506 11.6506 15.7698 11.5703 17.3719C11.4766 19.0232 11.4766 23.9724 11.5703 25.6236C11.6462 27.2258 12.0121 28.6449 13.1858 29.8142C14.3595 30.9834 15.7742 31.3494 17.3764 31.4297C19.0276 31.5234 23.9769 31.5234 25.6281 31.4297C27.2302 31.3538 28.6494 30.9879 29.8186 29.8142C30.9879 28.6449 31.3538 27.2258 31.4342 25.6236C31.5279 23.9724 31.5279 19.0276 31.4342 17.3764V17.3764ZM29.301 27.3953C28.9529 28.2701 28.279 28.9439 27.3998 29.2965C26.0833 29.8186 22.9593 29.6981 21.5045 29.6981C20.0496 29.6981 16.9212 29.8142 15.6091 29.2965C14.7344 28.9484 14.0605 28.2745 13.708 27.3953C13.1858 26.0788 13.3063 22.9549 13.3063 21.5C13.3063 20.0451 13.1903 16.9167 13.708 15.6047C14.0561 14.7299 14.7299 14.0561 15.6091 13.7035C16.9256 13.1814 20.0496 13.3019 21.5045 13.3019C22.9593 13.3019 26.0878 13.1858 27.3998 13.7035C28.2745 14.0516 28.9484 14.7255 29.301 15.6047C29.8231 16.9212 29.7026 20.0451 29.7026 21.5C29.7026 22.9549 29.8231 26.0833 29.301 27.3953Z" fill="white"/>
</svg>
