<svg width="42" height="42" viewBox="0 0 42 42" fill="none" xmlns="http://www.w3.org/2000/svg">
<rect x="0.5" y="-0.5" width="41.0045" height="41" transform="matrix(1 0 0 -1 -0.00390625 41)" fill="white"/>
<rect x="0.5" y="-0.5" width="41.0045" height="41" transform="matrix(1 0 0 -1 -0.00390625 41)" stroke="#18B5DC"/>
<path d="M15.4769 31H11.3304V17.647H15.4769V31ZM13.4014 15.8256C12.0755 15.8256 11 14.7273 11 13.4014C11 12.7645 11.253 12.1537 11.7034 11.7034C12.1537 11.253 12.7645 11 13.4014 11C14.0383 11 14.6491 11.253 15.0994 11.7034C15.5498 12.1537 15.8028 12.7645 15.8028 13.4014C15.8028 14.7273 14.7269 15.8256 13.4014 15.8256ZM30.996 31H26.8584V24.4999C26.8584 22.9507 26.8271 20.9641 24.7025 20.9641C22.5467 20.9641 22.2163 22.6471 22.2163 24.3882V31H18.0743V17.647H22.0511V19.4685H22.1092C22.6628 18.4194 24.015 17.3122 26.0325 17.3122C30.229 17.3122 31.0004 20.0756 31.0004 23.665V31H30.996Z" fill="#18B5DC"/>
</svg>
