<svg width="170" height="60" viewBox="0 0 170 60" fill="none" xmlns="http://www.w3.org/2000/svg">
<g clip-path="url(#clip0_94_135)">
<path d="M35.5912 9.244L31.022 14.4242L23.0085 7.42084L27.5777 2.24067L35.5912 9.244Z" fill="url(#paint0_linear_94_135)"/>
<path d="M46.9831 33.6818L60.2737 45.2962L50.9735 55.8389L37.6828 44.2243L35.3642 42.1984L44.6647 31.6557L46.9831 33.6818Z" fill="#2E8FE7"/>
<path d="M35.2693 46.96L38.1955 49.5171L31.1166 57.5417L25.8718 52.9585L27.4183 51.2054L32.9509 44.9339L35.2693 46.96Z" fill="#2D3DCC"/>
<path d="M49.8936 25.7275L51.8792 23.4768L57.1237 28.0601L52.5539 33.2404L49.6277 30.6833L52.212 27.7537L49.8936 25.7275ZM49.6277 30.6833L47.3093 28.6572L49.8936 25.7275L52.212 27.7537L49.6277 30.6833Z" fill="#1578D3"/>
<path d="M11.1313 36.9728L9.585 38.7258L1.571 31.7226L8.64991 23.6981L14.2673 28.6071L16.664 30.7015L11.1313 36.9728Z" fill="#2FD6FF"/>
<path d="M28.3758 17.4227L19.0754 27.9654L16.6789 25.871L3.51267 14.3654L12.8131 3.82267L25.9793 15.3282L28.3758 17.4227Z" fill="#1578D3"/>
<path d="M33.6068 11.4951L31.0225 14.4245L28.6258 12.3304L23.0085 7.42133L27.5784 2.24098L35.5924 9.24418L33.6068 11.4951Z" fill="#94EAFF"/>
<path d="M17.1578 59.8484L4.01679 48.2777L45.1538 1.54731L58.69 12.7713L17.1578 59.8484Z" fill="#18B5DC"/>
<path d="M74.96 20.6H76.4V44H74.96V20.6ZM70.76 20.6H72.2V44H70.76V20.6ZM79.6421 20.6H97.6721V22.04H79.6421V20.6ZM89.9921 23.72H97.6721V25.16H91.4321V44H89.9921V23.72ZM85.8521 25.16H79.6421V23.72H87.2921V44H85.8521V25.16ZM104.896 20.6H106.336V39.11H116.266V40.55H104.896V20.6ZM100.786 20.6H102.226V42.56H116.266V44H100.786V20.6ZM124.12 20.6H125.56V44H124.12V20.6ZM119.92 20.6H121.36V44H119.92V20.6ZM130.962 20.6H146.592V22.04H132.402V44H130.962V20.6ZM135.042 23.72H146.592V25.16H136.482V30.62H145.302V32.06H135.042V23.72ZM135.042 33.62H145.302V35.06H136.482V44H135.042V33.62ZM150.298 20.6H166.498V22.04H151.738V42.56H167.098V44H150.298V20.6ZM154.318 23.72H166.498V25.16H155.758V29.78H164.968V31.22H154.318V23.72ZM154.318 32.81H164.968V34.25H155.758V39.44H167.098V40.88H154.318V32.81Z" fill="#282528"/>
</g>
<defs>
<linearGradient id="paint0_linear_94_135" x1="-25.5041" y1="1.56486" x2="63.5835" y2="34.9301" gradientUnits="userSpaceOnUse">
<stop stop-color="#C06FBB"/>
<stop offset="1" stop-color="#6E4D9B"/>
</linearGradient>
<clipPath id="clip0_94_135">
<rect width="170" height="60" fill="white"/>
</clipPath>
</defs>
</svg>
