<svg width="42" height="42" viewBox="0 0 42 42" fill="none" xmlns="http://www.w3.org/2000/svg">
<rect x="0.5" y="-0.5" width="41.0045" height="41" transform="matrix(1 0 0 -1 0.00390625 41)" fill="white"/>
<rect x="0.5" y="-0.5" width="41.0045" height="41" transform="matrix(1 0 0 -1 0.00390625 41)" stroke="#18B5DC"/>
<path d="M30.5515 14.4566L27.6541 28.0342C27.4355 28.9924 26.8655 29.2309 26.0554 28.7795L21.6407 25.5469L19.5106 27.5827C19.2748 27.817 19.0777 28.0129 18.6233 28.0129L18.9405 23.5452L27.1227 16.1985C27.4784 15.8833 27.0455 15.7087 26.5698 16.0239L16.4546 22.3527L12.0999 20.9984C11.1527 20.7045 11.1355 20.0571 12.2971 19.6057L29.33 13.0852C30.1186 12.7913 30.8087 13.2598 30.5515 14.4566V14.4566Z" fill="#18B5DC"/>
</svg>
