<svg width="42" height="42" viewBox="0 0 42 42" fill="none" xmlns="http://www.w3.org/2000/svg">
<rect x="0.492188" y="0.5" width="41" height="41" fill="white"/>
<rect x="0.492188" y="0.5" width="41" height="41" stroke="#18B5DC"/>
<path d="M28.9363 16.9266C28.949 17.1043 28.949 17.282 28.949 17.4596C28.949 22.8784 24.8247 29.1221 17.2866 29.1221C14.9643 29.1221 12.8069 28.4494 10.9922 27.282C11.3221 27.32 11.6394 27.3327 11.982 27.3327C13.8982 27.3327 15.6622 26.6855 17.0709 25.5815C15.2688 25.5434 13.7587 24.3632 13.2384 22.7388C13.4922 22.7769 13.746 22.8022 14.0125 22.8022C14.3805 22.8022 14.7486 22.7515 15.0912 22.6627C13.213 22.2819 11.8043 20.6322 11.8043 18.6398V18.5891C12.35 18.8937 12.9846 19.084 13.6571 19.1094C12.553 18.3733 11.8297 17.117 11.8297 15.6956C11.8297 14.9342 12.0327 14.2363 12.3881 13.6271C14.4059 16.1144 17.4389 17.7388 20.8398 17.9165C20.7764 17.6119 20.7383 17.2947 20.7383 16.9774C20.7383 14.7185 22.5657 12.8784 24.8373 12.8784C26.0175 12.8784 27.0835 13.3733 27.8322 14.1728C28.7586 13.9952 29.6469 13.6525 30.4338 13.183C30.1291 14.1348 29.482 14.9343 28.6317 15.4419C29.4566 15.3531 30.2561 15.1246 30.9921 14.8074C30.4338 15.6195 29.7358 16.3428 28.9363 16.9266V16.9266Z" fill="#18B5DC"/>
</svg>
