<svg width="43" height="43" viewBox="0 0 43 43" fill="none" xmlns="http://www.w3.org/2000/svg">
<rect width="41.9999" height="42" transform="translate(0.5 0.5)" fill="#5DCBE6"/>
<path d="M29.4441 17.4266C29.4568 17.6043 29.4568 17.782 29.4568 17.9596C29.4568 23.3784 25.3325 29.6221 17.7944 29.6221C15.4721 29.6221 13.3147 28.9494 11.5 27.782C11.83 27.82 12.1472 27.8327 12.4898 27.8327C14.4061 27.8327 16.17 27.1855 17.5787 26.0815C15.7766 26.0434 14.2665 24.8632 13.7462 23.2388C14 23.2769 14.2538 23.3022 14.5203 23.3022C14.8883 23.3022 15.2564 23.2515 15.599 23.1627C13.7208 22.7819 12.3121 21.1322 12.3121 19.1398V19.0891C12.8578 19.3937 13.4924 19.584 14.1649 19.6094C13.0609 18.8733 12.3375 17.617 12.3375 16.1956C12.3375 15.4342 12.5405 14.7363 12.8959 14.1271C14.9137 16.6144 17.9467 18.2388 21.3477 18.4165C21.2842 18.1119 21.2461 17.7947 21.2461 17.4774C21.2461 15.2185 23.0736 13.3784 25.3451 13.3784C26.5253 13.3784 27.5913 13.8733 28.34 14.6728C29.2664 14.4952 30.1547 14.1525 30.9416 13.683C30.637 14.6348 29.9898 15.4343 29.1395 15.9419C29.9644 15.8531 30.7639 15.6246 31.4999 15.3074C30.9416 16.1195 30.2436 16.8428 29.4441 17.4266V17.4266Z" fill="white"/>
</svg>
