<svg width="33" height="32" viewBox="0 0 33 32" fill="none" xmlns="http://www.w3.org/2000/svg">
<path d="M0 9.4C0 9 0 8.6 0 8.2C0.04 8.04 0.1 7.89 0.12 7.73C0.66 4.29 2.52 1.88 5.75 0.57C6.38 0.32 7.05 0.19 7.7 0C8.47 0 9.23 0 10 0C10.12 0.04 10.24 0.1 10.36 0.13C12.59 0.58 14.42 1.68 15.81 3.49C15.88 3.58 15.93 3.68 16.01 3.81C16.17 3.63 16.26 3.54 16.34 3.44C17.73 1.68 19.52 0.58 21.72 0.14C21.89 0.11 22.04 0.05 22.2 0C22.93 0 23.67 0 24.4 0C24.52 0.04 24.64 0.09 24.77 0.12C28.57 0.84 31.34 3.67 31.97 7.48C32 7.66 32.05 7.83 32.1 8V9.7C32.05 9.86 31.99 10.01 31.96 10.17C31.58 12.43 30.49 14.28 28.7 15.71C28.6 15.79 28.49 15.86 28.35 15.96C28.53 16.13 28.63 16.23 28.75 16.32C30.5 17.74 31.57 19.56 31.96 21.79C31.99 21.96 32.06 22.13 32.11 22.3V24.2C32.05 24.4 31.97 24.6 31.93 24.81C31.36 27.64 29.81 29.76 27.23 31.04C26.32 31.49 25.29 31.69 24.31 32H22.11C21.94 31.94 21.78 31.87 21.6 31.83C19.48 31.39 17.76 30.31 16.41 28.63C16.31 28.5 16.2 28.38 16.07 28.22C15.91 28.41 15.79 28.57 15.66 28.72C14.4 30.27 12.79 31.27 10.86 31.76C10.54 31.84 10.22 31.92 9.9 32H7.6C7.43 31.94 7.27 31.86 7.09 31.83C3.42 31.04 0.76 28.23 0.16 24.52C0.12 24.28 0.05 24.04 0 23.8C0 23.4 0 23 0 22.6C0.04 22.44 0.1 22.29 0.12 22.13C0.39 20.19 1.17 18.5 2.53 17.1C2.9 16.72 3.3 16.39 3.73 16C3.58 15.87 3.47 15.75 3.34 15.65C1.6 14.22 0.53 12.4 0.17 10.17C0.13 9.91 0.05 9.66 0 9.41L0 9.4ZM23.29 29.24C25.75 29.24 27.96 27.75 28.87 25.48C29.8 23.15 29.23 20.52 27.42 18.82C26.64 18.08 25.71 17.62 24.68 17.34C24 17.16 23.6 16.64 23.6 16.01C23.6 15.38 24 14.87 24.67 14.67C24.85 14.62 25.02 14.57 25.2 14.51C27.76 13.67 29.37 11.31 29.3 8.53C29.24 6 27.41 3.68 24.92 2.99C21.71 2.09 18.36 3.98 17.49 7.2C17.47 7.28 17.45 7.36 17.42 7.44C17.2 8.23 16.72 8.65 16.03 8.64C15.35 8.64 14.87 8.2 14.67 7.41C14.04 4.93 11.98 3.07 9.57 2.82C6.97 2.54 4.61 3.79 3.44 6.08C2.3 8.3 2.68 11.04 4.4 12.92C5.22 13.82 6.25 14.36 7.42 14.68C8.44 14.96 8.85 16.08 8.2 16.83C7.95 17.12 7.52 17.3 7.14 17.42C4.38 18.25 2.54 20.88 2.8 23.69C3.07 26.6 5.32 28.95 8.1 29.22C11.11 29.51 13.76 27.74 14.59 24.88C14.9 23.8 15.32 23.38 16.06 23.39C16.8 23.4 17.19 23.81 17.48 24.87C18.2 27.45 20.59 29.26 23.26 29.26L23.29 29.24Z" fill="#3DB370"/>
</svg>
