<svg width="512" height="417" viewBox="0 0 512 417" fill="none" xmlns="http://www.w3.org/2000/svg">
<path d="M508.342 47.243C505.739 44.64 501.4 43.772 497.928 44.64L480.572 50.715C490.986 38.566 497.928 25.549 502.267 13.4C504.003 9.06102 503.135 5.59002 500.531 2.98602C497.928 0.383018 493.589 -0.484982 490.117 1.25002C465.819 11.664 444.992 20.342 427.636 25.548C427.636 26.416 426.768 25.548 425.9 25.548C412.015 17.738 378.171 0.382018 353.873 0.382018C292.259 1.25002 242.795 53.318 242.795 116.667V120.138C152.544 102.782 103.08 76.748 49.276 20.341L40.6 11.663L35.393 22.077C5.88801 78.484 26.715 129.684 60.559 164.396C44.939 161.793 34.525 156.586 24.979 148.776C21.508 146.173 17.169 145.305 12.83 147.908C9.35901 149.644 7.62301 154.85 8.49101 159.189C20.64 199.975 51.013 232.952 83.989 252.911C68.369 252.911 55.352 251.175 42.335 242.497C38.864 240.761 33.657 240.761 30.186 243.365C26.715 245.969 24.979 250.307 26.715 254.646C42.335 298.904 72.708 322.334 121.305 328.409C96.139 343.162 63.163 355.311 11.963 356.179C6.75601 356.179 2.41701 359.65 0.682006 363.989C-1.05399 369.196 0.682007 373.535 4.15301 377.006C35.394 402.172 104.817 416.925 190.729 416.925C343.461 416.925 468.424 280.681 468.424 113.196V110.593C487.516 101.047 503.136 82.823 510.946 57.657C511.813 54.185 510.945 49.846 508.342 47.243ZM456.274 96.707L451.067 98.443V113.196C451.067 271.135 333.914 399.569 190.728 399.569C111.758 399.569 58.823 386.552 30.186 372.667C90.064 368.328 124.776 349.236 151.678 328.409L173.373 312.789H147.339C97.875 312.789 67.502 298.904 50.146 265.928C65.766 271.135 82.254 271.135 100.478 270.267C107.42 269.399 114.363 269.399 121.305 269.399L123.908 252.043C90.932 242.497 51.881 212.992 32.789 173.074C50.145 180.884 69.236 182.62 86.592 182.62H113.494L91.8 166.999C73.576 153.982 19.773 107.989 45.807 42.036C101.346 96.707 154.282 121.873 249.739 139.229L260.153 140.965V116.667C260.153 62.864 301.807 18.606 353.875 17.738C373.834 16.87 406.811 35.094 416.356 40.301C421.563 42.904 426.77 43.772 431.976 42.037C444.993 37.698 460.613 31.623 477.969 24.681C470.159 37.698 459.745 49.847 445.861 61.129C442.39 63.732 441.522 68.939 443.258 73.278C444.994 77.617 450.2 79.353 454.539 77.617L488.383 66.336C482.308 77.616 472.762 90.633 456.274 96.707Z" fill="black"/>
</svg>
