<svg width="40" height="72" viewBox="0 0 40 72" fill="none" xmlns="http://www.w3.org/2000/svg">
<path fill-rule="evenodd" clip-rule="evenodd" d="M6.50185 3.10447C6.39938 2.966 6.72668 3.20021 7.04404 3.52513C7.19485 3.65622 7.29931 3.75566 7.38009 3.8382C6.76717 3.21376 6.73743 3.10342 6.70916 2.99847C6.67741 2.88068 6.6475 2.76968 5.7969 1.94619C5.98486 2.13375 5.99153 2.1705 5.99722 2.20184C5.99854 2.20908 5.9998 2.21604 6.00323 2.2245C5.78675 2.0365 5.18707 1.4762 4.91547 1.15148L4.95348 1.24392L4.29429 0.592344L4.23241 0.531362L4.20177 0.501064L4.18665 0.485916L4.12736 0.433867L4.119 0.42707L3.98848 0.321808C3.9831 0.315981 3.95604 0.29889 3.93336 0.284713L3.86392 0.242958C3.81756 0.215963 3.77101 0.190909 3.72544 0.167798C3.64516 0.124333 3.58264 0.105603 3.52242 0.0875623C3.51025 0.083919 3.49818 0.0803038 3.48608 0.0765187C3.37271 0.039472 3.25484 0.0171399 3.1355 0.0100979L3 0C3.06884 0.0209748 3.16336 0.0405894 3.27518 0.0635063C3.31252 0.0698165 3.35064 0.0830434 3.39042 0.0968453C3.41063 0.103858 3.43127 0.111019 3.45246 0.117497C3.47365 0.125506 3.49406 0.132143 3.51468 0.138845C3.55754 0.152781 3.60127 0.166996 3.65461 0.194405C3.73564 0.235048 3.81472 0.27931 3.89158 0.327051C3.89638 0.330118 3.90198 0.333603 3.90775 0.33719C3.92281 0.346553 3.93901 0.35662 3.9449 0.361815L3.97355 0.384926L4.03185 0.431538L4.09155 0.47873L4.15262 0.532721L4.16635 0.545927L4.19441 0.572535L4.30702 0.679545L4.34376 0.714304C4.63239 0.987334 4.91003 1.24996 4.96481 1.38337L4.2159 0.683623L5.37887 1.94134C4.93676 1.42862 5.46005 1.80306 5.8349 2.26722C5.82436 2.38204 5.84941 2.40773 6.01753 2.58015C6.11899 2.68421 6.27255 2.8417 6.50185 3.10447ZM9.06536 5.29944L8.6135 4.64961C9.22443 5.1582 9.20451 5.1281 9.16113 5.06257C9.12472 5.00757 9.07179 4.92761 9.36162 5.12038C9.17621 4.9747 8.91009 4.71711 8.62661 4.44272C8.18031 4.01072 7.69098 3.53706 7.40576 3.39287L8.363 4.60086C8.29662 4.53471 8.2319 4.47243 8.16895 4.41185C8.00922 4.25814 7.86086 4.11537 7.7257 3.94793L7.57806 4.03804L7.40715 3.86519C7.54138 4.00668 7.59645 4.09347 7.64937 4.17688C7.69365 4.24666 7.73642 4.31408 7.8228 4.40918C8.1692 4.69059 8.68254 5.15573 9.36958 5.81197C9.65906 6.18814 9.8063 6.33748 10.1544 6.69057C10.2772 6.81508 10.425 6.96494 10.6127 7.15902C10.7991 7.25844 10.5648 7.01173 10.2952 6.72796C10.0493 6.46904 9.77411 6.17927 9.76234 6.09338C9.90997 6.23108 10.0777 6.41635 10.1623 6.51016C10.4668 6.76835 10.3366 6.60409 10.1975 6.42878C10.1107 6.31925 10.0204 6.20542 10.0306 6.18757L9.06536 5.29944ZM15.2577 57.1655C15.2097 57.1845 15.1126 57.224 14.8772 57.4496C15.2525 57.086 15.4268 56.9648 15.5846 56.855C15.7395 56.7472 15.8786 56.6504 16.1767 56.3461L14.2632 57.7511L14.2115 57.8002C14.6424 57.4504 14.3504 57.9723 13.6834 58.5029L13.8522 58.4044C13.6228 58.561 13.0413 59.0897 12.8724 59.3148C13.2078 59.011 13.0351 59.2192 12.8538 59.4379C12.7516 59.561 12.6468 59.6875 12.6285 59.7276L15.2577 57.1655ZM16.1767 56.3461L16.3675 56.1442C16.4017 56.1465 16.4915 56.1024 16.6242 56.0181L16.1767 56.3461ZM4.69979 4.24254C5.02908 4.58552 5.05972 4.63757 5.00938 4.61116C4.90181 4.49185 4.79855 4.36891 4.69979 4.24254ZM16.9831 55.7542L16.6242 56.0179C16.7817 55.9179 16.9933 55.7635 17.2235 55.5776L16.9984 55.743L17.997 54.7354C17.964 54.8383 18.1887 54.6415 18.4141 54.444C18.5262 54.3458 18.6385 54.2475 18.7194 54.1857C17.7743 55.1389 17.8865 55.1157 17.9816 55.0961C18.0759 55.0766 18.1535 55.0606 17.1702 56.0006C17.0898 56.0466 17.0528 56.0658 17.0187 56.0892C16.957 56.1316 16.9049 56.1879 16.6225 56.4426C16.803 56.2897 16.8377 56.3342 16.4961 56.6658L16.0645 56.9673C15.7622 57.3888 16.1378 57.0616 16.4716 56.7708C16.7583 56.5212 17.0142 56.2983 16.7841 56.5987C17.0118 56.4105 17.2803 56.1786 17.5462 55.9491C18.2356 55.354 18.9067 54.7746 18.7988 55.0119C18.2075 55.6157 17.8849 55.8447 17.5616 56.0741C17.2261 56.3122 16.8899 56.5508 16.2517 57.2096L16.1546 57.3823C15.8369 57.6539 15.6677 57.7503 15.507 57.842C15.423 57.8899 15.3413 57.9364 15.242 58.006C15.2426 58.0501 15.1442 58.1788 14.8579 58.4679C14.4775 58.7536 14.1619 59.0056 13.8585 59.2478C13.4713 59.557 13.1038 59.8503 12.6467 60.1779C13.6399 59.2958 14.0237 58.8886 14.4196 58.4687C14.8086 58.0561 15.2092 57.6311 16.211 56.7311C16.1126 56.8085 15.9238 56.9746 15.7012 57.1705C15.1616 57.6454 14.423 58.2953 14.2902 58.2823L14.3835 58.3371C13.7103 58.912 13.0376 59.487 12.2654 60.2799L12.794 59.8511C12.3038 60.2799 11.926 60.6824 11.5741 61.0573C11.1307 61.5298 10.7285 61.9583 10.1945 62.3398C10.4697 62.062 10.7023 61.8407 10.891 61.6782C10.3198 62.1686 9.65652 62.8234 9.08684 63.3974L8.79729 63.6256L7.05867 64.2968C8.72507 62.6898 10.3711 61.0633 11.9965 59.4177C12.1717 59.1064 11.6426 59.5762 11.2081 59.962C10.9239 60.2143 10.6803 60.4306 10.7008 60.3688L9.92865 61.1626C9.96773 61.1653 10.2527 60.9028 10.5355 60.6423C10.9497 60.2607 11.3595 59.8833 10.9862 60.3486C10.4567 60.8336 10.0435 61.2313 9.66142 61.5991C9.00104 62.2347 8.43379 62.7807 7.52041 63.5324C7.67276 63.2626 8.14862 62.8195 8.67914 62.3254C9.16815 61.8701 9.7036 61.3714 10.0749 60.9254C9.71814 61.2852 9.39687 61.5697 9.08041 61.8415L11.6456 59.2658L11.8838 59.0927C11.2719 59.71 10.8497 60.1378 10.7983 60.1958C11.6169 59.3847 12.3838 58.7748 12.5283 58.8077L12.384 58.953L12.7117 58.6907C12.8847 58.5149 13.057 58.3385 13.2285 58.1631L13.278 58.1123L13.5084 57.9145L13.3788 58.0081L13.924 57.4464C14.0058 57.3762 14.0863 57.3046 14.1656 57.2317C14.127 57.2649 14.0923 57.2858 14.0683 57.2964L14.2416 57.1151C14.5434 56.8954 15.0716 56.4455 15.5279 56.057C15.8453 55.7867 16.1279 55.5461 16.2752 55.4331C16.7283 55.0476 17.2653 54.5583 17.5876 54.2379C17.2856 54.532 16.8704 54.9084 16.9565 54.7583C17.1127 54.5886 17.241 54.4363 17.3677 54.286C17.7108 53.8787 18.0418 53.4858 18.8835 52.7996L18.2588 53.4001L19.7952 52.1771C20.0558 51.8607 19.729 52.1424 19.3727 52.4495C19.1343 52.655 18.8827 52.8719 18.7852 52.9285C19.3409 52.4536 19.7978 51.9653 20.1916 51.5445C20.6175 51.0894 20.9695 50.7133 21.2927 50.5184C21.2945 50.3829 21.2984 50.1558 22.0204 49.4721C21.8001 49.7619 21.9242 49.6663 22.0577 49.5634C22.1889 49.4624 22.3292 49.3544 22.1614 49.5973C22.3002 49.5003 22.4856 49.3112 22.6506 49.143C22.7896 49.0012 22.9142 48.8742 22.9839 48.8298L22.9316 48.85C23.7715 47.8788 24.3033 47.5159 24.7628 47.2023C24.9113 47.101 25.0522 47.0048 25.1936 46.895C26.0419 46.1069 26.6105 45.5433 27.1649 44.9937C27.5845 44.5777 27.9961 44.1697 28.5148 43.6785C28.5152 43.5884 28.7123 43.1517 29.1957 42.6944C29.3217 42.6262 29.6086 42.3901 29.906 42.1454C30.2814 41.8364 30.6735 41.5137 30.78 41.4976C30.2792 42.0207 30.1038 42.1329 29.923 42.2486C29.8072 42.3228 29.6892 42.3983 29.4819 42.5844C29.3335 42.7982 29.3223 42.8487 29.3137 42.8872C29.3026 42.9374 29.296 42.9671 28.9948 43.3131C29.1704 43.1181 29.5545 42.7559 29.9796 42.3551C30.6128 41.758 31.3368 41.0754 31.5973 40.7325L31.4047 40.8971C31.663 40.6167 31.8304 40.3916 31.9942 40.1712C32.3208 39.7319 32.6333 39.3115 33.6249 38.5089L34.3272 37.9259C34.3018 37.9405 34.2873 37.9434 34.2739 37.9461C34.2664 37.9475 34.2593 37.949 34.2508 37.9523C34.6823 37.529 34.8748 37.31 35.0357 37.127C35.0725 37.0852 35.1076 37.0453 35.1435 37.0052C35.1944 36.9483 35.2464 36.8923 35.2997 36.8374C35.3717 36.7636 35.4453 36.6912 35.5204 36.6202C35.6934 36.4559 35.9241 36.248 36.2863 35.9334C36.2305 35.9818 36.2148 35.9901 36.1991 35.9984C36.1834 36.0066 36.1677 36.0149 36.1118 36.0636C36.2556 35.9067 36.4048 35.7546 36.5593 35.6075C36.2745 35.33 36.0189 35.0533 35.7686 34.7788L35.4008 34.3752L35.0926 34.0429C34.8361 33.8832 34.9317 34.0028 35.0643 34.1687C35.1269 34.247 35.1977 34.3356 35.2437 34.4101C34.0344 33.2925 32.8726 31.9484 32.2196 31.1601L31.4175 30.4616C31.8421 30.9252 32.3243 31.5272 32.1457 31.4331C31.9936 31.2765 31.9143 31.1852 31.8428 31.1029C31.7234 30.9655 31.6255 30.8528 31.2465 30.5025C31.2923 30.6114 31.4303 30.8061 31.5959 31.0398C31.6418 31.1045 31.6898 31.1723 31.7386 31.242C31.0405 30.6426 31.0576 30.5686 31.069 30.5194C31.0788 30.477 31.0843 30.453 30.6263 30.1283C30.24 29.7569 30.0786 29.4802 30.0883 29.3895L29.3221 28.7806C29.3119 28.6593 28.6533 28.0037 28.1169 27.4698C28.0404 27.3936 27.9664 27.32 27.8972 27.2507C27.8566 27.1567 28.4225 27.6219 28.6111 27.8533C28.6208 27.7626 28.0441 27.1587 27.6566 26.7863C27.5218 26.7848 26.9353 26.2143 26.3957 25.6895C25.8141 25.1238 25.2871 24.6112 25.4396 24.9218C24.7719 24.2429 23.9899 23.4629 23.2209 22.6959C22.0416 21.5196 20.893 20.374 20.2344 19.6703C20.1067 19.5696 19.9454 19.4299 19.7946 19.2994C19.4542 19.0047 19.1677 18.7566 19.4428 19.109C18.8073 18.4959 18.341 17.9893 17.8876 17.4968C17.3434 16.9055 16.8177 16.3344 16.0402 15.6235C15.9884 15.5866 16.0734 15.672 16.1903 15.7892C16.3714 15.9709 16.6287 16.2292 16.5708 16.2273C16.1444 15.762 15.7165 15.3774 15.2234 14.9342C14.7503 14.5088 14.217 14.0295 13.5675 13.3732C13.6983 13.5101 13.7474 13.5877 13.7705 13.6344C13.7022 13.5407 13.444 13.2629 13.1951 12.995C13.096 12.8883 12.9982 12.7832 12.9146 12.6919C12.8065 12.599 12.8701 12.6685 12.9445 12.7496C13.019 12.831 13.1042 12.924 13.038 12.8771C11.4711 11.4372 10.1898 10.1171 8.88627 8.77396C7.87271 7.72964 6.84567 6.67145 5.66041 5.53228C6.43419 6.27591 6.63446 6.64617 6.60496 6.69054L5.84703 5.96183C5.69992 5.76676 5.43713 5.4919 5.15536 5.19719C4.96669 4.99984 4.7695 4.7936 4.59285 4.59645C4.57374 4.5864 4.54347 4.56573 4.51239 4.54451C4.4207 4.48192 4.32193 4.41449 4.48168 4.60013C3.68823 3.92374 3.14683 3.32 2.5687 2.67015L2.12381 2.17221L2.06703 2.10866L2.03311 2.0577C2.0286 2.05128 2.02396 2.04495 2.01931 2.03862C2 2.01229 1.98073 1.98603 1.97151 1.95385C1.93458 1.88235 1.91572 1.80195 1.9087 1.72115C1.90268 1.63977 1.91091 1.55549 1.93719 1.47547C1.94261 1.46269 1.94728 1.44847 1.95186 1.4345C1.96069 1.4076 1.9692 1.38166 1.98214 1.36891C1.99001 1.35547 1.99665 1.3414 2.00201 1.32686L2.00622 1.31504L2.02328 1.29547L2.0574 1.25614L2.11618 1.18813L2.1184 1.18658L2.13244 1.17651L2.16034 1.15578L2.21431 1.11121C2.23605 1.10153 2.2574 1.09106 2.27833 1.07983C2.30597 1.06141 2.32891 1.05407 2.35011 1.04729C2.36369 1.04294 2.37657 1.03882 2.3895 1.03216C2.39708 1.02222 2.43813 1.01809 2.47734 1.01415L2.48121 1.01376L2.6008 1L2.46556 1.00155C2.45929 1.00188 2.45127 1.00185 2.44293 1.00182C2.42671 1.00176 2.40929 1.0017 2.40134 1.00426C2.3718 1.01219 2.34146 1.017 2.31084 1.0186L2.24442 1.04418C2.19818 1.05525 2.15673 1.08163 2.11169 1.1103C2.10707 1.11323 2.10242 1.11619 2.09773 1.11916L2.07806 1.13078L2.06783 1.1366L2.06301 1.1395L2.06161 1.14028L2.06101 1.14066C2.0639 1.13753 2.06233 1.13914 2.06073 1.14077C2.05779 1.14379 2.05473 1.14691 2.07946 1.12051L2.07666 1.12342L2.03071 1.16915L1.93719 1.26292C1.88181 1.33868 1.80314 1.47799 1.78528 1.62602C1.77317 1.77563 1.80174 1.9257 1.86816 2.06138C1.87804 2.0762 1.88734 2.09062 1.8965 2.10481C1.92661 2.15149 1.95522 2.19584 1.99799 2.24487L2.15191 2.42041L2.46936 2.78273L1.85652 2.3152L2.74709 3.33764C2.34894 3.00854 2.04301 2.66003 1.84074 2.42962C1.72291 2.29538 1.64026 2.20123 1.59505 2.17434C1.6083 2.22181 1.64663 2.27412 1.69057 2.3305L1.7582 2.41692L1.82402 2.48803C1.9091 2.58084 1.97773 2.66221 1.96348 2.68488C1.9371 2.66118 1.91208 2.63903 1.88818 2.61788C1.77865 2.52093 1.69305 2.44516 1.6115 2.33922C1.56054 2.284 1.53144 2.22394 1.50495 2.16814C1.50221 2.16249 1.49948 2.15689 1.49677 2.15134C1.47285 2.10228 1.45067 2.05679 1.44274 2.00771L1.40883 1.85155L1.40482 1.68724C1.40082 1.64511 1.40817 1.6014 1.416 1.55479C1.4188 1.53817 1.42165 1.52118 1.42408 1.50376C1.4299 1.43691 1.45338 1.36736 1.48167 1.28985C1.38374 1.48477 1.34703 1.74828 1.42689 2.01546C1.46622 2.14741 1.52923 2.284 1.62756 2.40103C1.63336 2.40848 1.63939 2.41637 1.64551 2.42438C1.66312 2.44743 1.68151 2.47151 1.69759 2.48919L1.762 2.55952L1.89405 2.70212C2.27423 3.10873 2.66015 3.51029 3.05171 3.90669L5.25064 6.12052C5.35495 6.2341 5.28841 6.14317 5.21531 6.04329C5.16733 5.97773 5.11653 5.90831 5.10937 5.89034C5.30305 6.08108 5.47285 6.2329 5.64551 6.38729C5.8936 6.60912 6.14762 6.83626 6.48697 7.19178C6.72844 7.51406 6.40156 7.20055 6.10097 6.91225C6.01212 6.82703 5.92556 6.74401 5.85666 6.68027C5.84665 6.76003 5.96614 6.88038 6.21983 7.1359C6.25087 7.16717 6.28393 7.20046 6.31901 7.23596C6.38704 7.23699 6.81783 7.63971 7.30216 8.09249C7.81936 8.57599 8.39762 9.11657 8.66042 9.28606C9.54758 10.1641 9.40898 10.1201 9.29316 10.0833C9.18209 10.0479 9.09196 10.0193 9.9477 10.8171L10.5401 11.236C11.476 12.258 12.7115 13.556 13.8569 14.6294L13.6218 14.3973C13.52 14.2457 13.6898 14.3729 13.8281 14.4765C13.8592 14.4998 13.8887 14.5218 13.9131 14.5393C14.3038 14.8877 14.6524 15.2442 14.9711 15.5701C15.3759 15.9841 15.7326 16.3488 16.0661 16.5851C16.9374 17.5861 18.454 19.1694 19.5203 20.2826L19.5824 20.3475C19.8266 20.4614 19.2798 19.8962 18.7204 19.3181C18.3531 18.9385 17.9804 18.5533 17.8228 18.3512L18.8347 19.3291C18.2136 18.7268 18.005 18.4495 17.6921 18.0335L17.6871 18.0269C18.2232 18.5223 18.5124 18.8541 18.8275 19.2157C19.0454 19.4657 19.2758 19.73 19.6087 20.0725C19.5716 19.9818 19.7014 20.0735 20.0901 20.4472L20.1309 20.6206C20.1435 20.622 20.1919 20.6584 20.3161 20.7698L21.7701 22.2557C21.6287 22.1425 21.5323 22.0826 21.4416 22.0262C21.3096 21.9441 21.1894 21.8695 20.9598 21.6487C21.1384 21.7429 20.8186 21.4185 20.4305 21.0461C20.5973 21.2569 20.4404 21.1226 20.2684 20.9752C20.1377 20.8633 19.9982 20.7439 19.9856 20.7629C20.7632 21.51 21.7067 22.439 22.1964 22.9484L22.4255 23.0462C22.8066 23.3984 23.185 23.7734 23.5331 24.1184C23.8752 24.4574 24.1881 24.7675 24.4457 24.9985L24.3216 24.8131C24.6575 25.1234 24.9832 25.44 25.3033 25.7512C25.8471 26.2797 26.375 26.7928 26.9099 27.2335C27.1953 27.5651 27.515 27.9262 27.8325 28.2848C28.3136 28.8281 28.7895 29.3655 29.1331 29.786C29.2503 29.9701 29.7433 30.4144 30.3229 30.9366C31.0457 31.5878 31.9029 32.3602 32.3334 32.9004C32.3789 32.933 32.1245 32.6387 31.8677 32.3417C31.7355 32.1888 31.6027 32.0351 31.5098 31.925C31.7642 32.1603 31.9768 32.3944 32.158 32.5941C32.4086 32.8701 32.5993 33.0801 32.7576 33.1358C31.9922 32.4285 32.1325 32.5176 32.2994 32.6236C32.4291 32.7061 32.5749 32.7987 32.3233 32.5349C32.945 33.1383 33.5865 33.7879 33.8613 34.1133C33.3418 33.6109 33.4211 33.749 33.4853 33.8608C33.5457 33.966 33.5928 34.0479 33.1162 33.5523C33.4581 33.9495 33.8751 34.4002 34.323 34.8584L34.7574 35.2998C34.8649 35.405 34.9753 35.5073 35.0888 35.6065L35.0308 35.6695C35.1058 35.6695 35.0835 35.7243 34.9214 35.9109C34.9176 35.9148 34.7007 36.0192 34.7045 36.0155C34.617 36.1082 34.6968 36.0559 34.7887 35.9956C34.8021 35.9868 34.8157 35.9779 34.8291 35.9692C34.9326 35.9026 35.0223 35.8516 34.789 36.0954C34.7798 36.1018 34.7711 36.1079 34.7627 36.1137C34.6938 36.1617 34.6454 36.1954 34.4932 36.3333C34.3412 36.4699 34.1914 36.6088 34.0439 36.7499L33.1005 37.6679C32.4801 38.2733 31.9138 38.8075 31.6278 38.9176C31.3362 39.2599 31.615 39.0237 31.9013 38.7811C32.2324 38.5006 32.5737 38.2114 32.0552 38.798C32.3638 38.5552 32.693 38.2383 32.9867 37.9555C33.3337 37.6215 33.6311 37.3352 33.7866 37.2747C33.4373 37.5854 33.4338 37.6361 33.4303 37.6864C33.4275 37.7259 33.4248 37.7652 33.2554 37.9294L32.5348 38.5229L32.6793 38.3772C31.844 39.0749 30.7501 40.1342 29.6756 41.1748C29.2047 41.6309 28.7374 42.0834 28.2973 42.5003C27.9408 42.7986 27.6099 43.0667 27.2874 43.3279C26.4356 44.0179 25.6433 44.6598 24.5958 45.6846C24.7962 45.5319 24.627 45.7183 24.4356 45.9294C24.1686 46.2237 23.8583 46.5657 24.4453 46.1035C23.8174 46.796 23.1004 47.3861 23.0496 47.3627C23.3683 47.0414 23.3957 47.0093 23.4358 46.9623C23.4686 46.9239 23.51 46.8755 23.7259 46.651C23.344 46.932 22.5702 47.683 22.2814 48.0193C22.384 47.9156 22.3896 47.9173 22.4012 47.9205C22.4059 47.9219 22.4115 47.9235 22.4251 47.9184C22.039 48.3248 21.9688 48.3595 21.8809 48.4029C21.8149 48.4354 21.7389 48.4729 21.5117 48.6765C21.4545 48.8031 21.0889 49.1557 20.7075 49.5235C20.4326 49.7886 20.1495 50.0615 19.9679 50.2634L19.2012 50.8288C19.4301 50.6688 19.2392 50.8611 19.0021 51.1C18.7928 51.311 18.5474 51.5583 18.5231 51.6315C18.395 51.7355 18.2695 51.8332 18.1427 51.9321C17.7482 52.2395 17.34 52.5576 16.7935 53.1089C16.9566 52.9806 16.8135 53.14 16.6283 53.3463C16.4318 53.5652 16.1878 53.837 16.2124 53.8734C15.6313 54.4883 15.086 54.9429 14.5527 55.3876C13.9786 55.8662 13.4184 56.3332 12.8424 56.9762C12.8513 56.9723 12.8672 56.9632 12.8856 56.9526C12.973 56.9026 13.117 56.8201 12.8404 57.1114C12.6553 57.2695 12.3969 57.5169 12.1557 57.7479C12.0157 57.882 11.8814 58.0106 11.7706 58.1129L11.7816 58.1056L11.7646 58.1187C11.6169 58.2549 11.5183 58.3355 11.5003 58.3247C11.366 58.4271 11.2455 58.5161 11.1258 58.6044C10.7424 58.8875 10.3669 59.1648 9.57145 59.859C9.57526 59.7217 10.441 58.9375 10.8264 58.6084L11.2087 58.3712C11.3281 58.1329 11.6423 57.8697 11.913 57.6429C12.0859 57.4981 12.2411 57.3681 12.3164 57.2689C11.8883 57.5414 11.1164 58.2503 10.3287 58.9737C9.79439 59.4645 9.25275 59.962 8.8061 60.3345C9.33747 59.6352 10.6884 58.3016 11.892 57.1622L11.4086 57.709L12.0335 57.1081L11.5035 57.762C11.8407 57.4217 12.1615 57.1184 12.4755 56.8214C12.6684 56.6389 12.8588 56.4589 13.0488 56.2742C12.5003 56.8184 12.3832 57.0962 12.7045 56.7582C13.0784 56.3192 13.28 56.1697 13.4931 56.0116C13.6384 55.9038 13.7889 55.7921 14.003 55.5821C13.9689 55.6165 13.9334 55.6521 13.8979 55.6877C13.6319 55.9543 13.3627 56.2241 13.6167 56.0462C14.0843 55.517 14.4048 55.1919 14.7091 54.8833C15.0339 54.5539 15.3402 54.2432 15.7872 53.723C15.7856 53.8415 16.1175 53.5213 16.4677 53.1835C16.7845 52.8778 17.1163 52.5577 17.2292 52.5355L16.7959 52.9726L17.8053 52.1325C18.1759 51.6877 17.9929 51.8183 17.8397 51.9276C17.6733 52.0463 17.5421 52.1399 18.1946 51.443C18.8583 50.7898 19.1839 50.5408 19.5035 50.2963C19.7648 50.0965 20.022 49.8998 20.4566 49.488C20.0729 49.7263 19.2549 50.4029 18.4846 51.1504L18.9192 50.667C18.6326 50.8673 17.576 51.9034 17.046 52.4231L17.043 52.4261C17.5785 51.9935 17.3952 52.1751 17.0697 52.4976C16.8121 52.753 16.4653 53.0966 16.3153 53.2939C16.2597 53.2967 16.3173 53.2137 16.3615 53.1499C16.4285 53.0533 16.4648 53.001 16.0304 53.3586C16.1276 53.2651 16.2121 53.1841 16.2884 53.111C16.7038 52.7128 16.874 52.5496 17.5256 51.8799C16.6746 52.7309 16.2301 53.0475 15.814 53.3439C15.4035 53.6363 15.0206 53.909 14.3022 54.656C14.8061 54.2099 14.5361 54.5443 14.3093 54.8253C14.2109 54.9472 14.1207 55.059 14.1052 55.0927L14.0665 55.1283C13.7216 55.4455 13.0843 56.0317 12.8064 56.2688L12.9569 55.9388C12.547 56.299 12.3002 56.5959 12.0533 56.8928C11.7483 57.2597 11.4433 57.6266 10.8307 58.1129C10.6949 58.1643 11.2059 57.6866 11.43 57.4772C11.5169 57.396 11.5606 57.3551 11.5067 57.4011C10.5547 58.2438 10.0815 58.8044 9.53739 59.4491C9.25743 59.7808 8.95869 60.1347 8.5663 60.5608C8.54478 60.5694 8.52575 60.5726 8.50407 60.5763C8.42708 60.5893 8.31662 60.608 7.94242 60.8933C8.0131 60.8658 8.01873 60.8937 8.02379 60.9189C8.03249 60.9621 8.0395 60.9968 8.37125 60.7278C8.04611 61.0811 7.62034 61.4407 7.26451 61.7412C7.19782 61.7975 7.13358 61.8518 7.07292 61.9035C7.63373 61.3177 7.22593 61.6533 6.85054 61.9622C6.67683 62.1052 6.51007 62.2424 6.44944 62.28C6.0168 62.7165 6.64148 62.205 6.93024 61.9583C6.8299 62.0641 6.72974 62.1812 6.631 62.2967C6.39548 62.5721 6.16805 62.8381 5.96543 62.9169C6.01178 62.9887 7.11687 62.112 7.79111 61.4914L7.35707 61.9293C7.63972 61.7065 7.71923 61.6259 7.99285 61.3484C8.045 61.2955 8.10419 61.2354 8.17319 61.1659C7.78871 61.6274 7.88302 61.6363 8.0265 61.5809C8.0506 61.5491 8.03873 61.5536 8.02688 61.5581C8.01525 61.5625 8.00363 61.5669 8.0261 61.5369C8.36543 61.1795 8.65419 60.9328 8.60403 61.0431C8.85341 60.9 8.62053 61.1388 8.36127 61.4047C8.20455 61.5655 8.03819 61.7361 7.96289 61.8382L7.40543 62.3453L5.30182 63.8732C4.68918 64.4208 4.37187 64.7839 4.01901 65.1876C3.90089 65.3228 3.77878 65.4625 3.64027 65.6153L3.4083 65.7048C2.73044 66.3732 2.10596 67.0186 2.63332 66.6799C2.63441 66.6437 2.69324 66.5858 2.78834 66.4921C2.81492 66.4659 2.84434 66.4369 2.87612 66.4048C2.90542 66.3947 2.94636 66.3684 2.99512 66.3318C3.01358 66.3219 3.02542 66.3182 3.04127 66.3108L1.76743 67.4639C2.58178 66.7957 2.48035 66.9581 2.34624 67.1729C2.25853 67.3134 2.15685 67.4763 2.28816 67.4439L1.4006 68.2478L1.29084 68.3472L1.14776 68.5032L1.10843 68.5467C1.10442 68.55 1.09217 68.5669 1.08054 68.5836L1.04843 68.6304C1.00749 68.6915 0.973976 68.7473 0.947891 68.7934C0.917744 68.8466 0.897026 68.8871 0.885326 68.9115C0.942295 68.781 1.01125 68.6557 1.09137 68.5371L1.11124 68.5097L1.14595 68.4617C1.16269 68.4375 1.17936 68.4132 1.19592 68.3888L1.20034 68.3819L1.20094 68.3811L1.25873 68.3193L1.25993 68.3175L1.26234 68.3144L1.27097 68.3034L1.28341 68.2856C1.29605 68.266 1.29284 68.2619 1.278 68.2697C1.27057 68.2736 1.26033 68.2803 1.24749 68.2894L1.23746 68.2968L1.23666 68.2974L1.17665 68.3613L1.17545 68.3625L1.17284 68.3648L1.16782 68.3695L1.14576 68.3906C1.11365 68.4224 1.07713 68.458 1.03217 68.5068C0.948296 68.6186 0.862206 68.7556 0.794983 68.8938C0.750031 69.0108 0.707291 69.1321 0.679398 69.2456C0.659531 69.3609 0.646889 69.469 0.638863 69.5574C0.655491 69.6131 0.667896 69.6699 0.675987 69.7273C0.67989 69.748 0.683434 69.7703 0.687202 69.794C0.699139 69.8692 0.713356 69.9587 0.748428 70.0569C0.768696 70.1218 0.791973 70.1915 0.818462 70.2644C0.851772 70.3345 0.890499 70.4078 0.93264 70.4833C0.974388 70.5623 1.02543 70.6363 1.08475 70.704C1.10206 70.7248 1.11965 70.7456 1.13738 70.7666C1.15007 70.7817 1.16285 70.7968 1.17565 70.8121L1.22341 70.866L1.22943 70.8726L1.30006 70.9342L1.3075 70.9404L1.32235 70.9528L1.44435 71.0545C1.52822 71.1142 1.65405 71.1884 1.76562 71.2436L1.85271 71.2851L1.92635 71.3102L2.07566 71.3566C2.17499 71.3893 2.27652 71.4044 2.37806 71.4141C2.58014 71.4436 2.7788 71.4207 2.9594 71.3936C3.138 71.3498 3.30295 71.304 3.43238 71.2293L3.34509 71.2498C3.36435 71.2395 3.38404 71.2291 3.40402 71.2187C3.50828 71.164 3.62025 71.1053 3.71894 71.0187C3.77914 70.9706 3.84415 70.9162 3.90054 70.865L3.99566 70.7691L4.41626 70.3578C4.70238 70.0834 4.99312 69.8135 5.28837 69.5483C5.28837 69.5781 5.627 69.358 5.96646 69.1373C6.13794 69.0259 6.30964 68.9143 6.438 68.8347C5.85575 69.4312 5.93062 69.3951 6.02615 69.3491C6.06982 69.328 6.11781 69.3049 6.10931 69.3392C6.196 69.2481 6.35774 69.0902 6.38563 69.0805C6.4673 69.0232 6.41132 69.0907 6.34659 69.1688C6.29648 69.2292 6.24113 69.2959 6.24035 69.3159C6.06256 69.4761 5.88463 69.6378 5.70968 69.7969C5.41151 70.068 5.12199 70.3312 4.85653 70.5651C4.66779 70.7327 4.47496 70.896 4.2782 71.0549L4.12569 71.1742C4.036 71.2432 3.94709 71.3048 3.86221 71.3583C3.68863 71.46 3.51626 71.5216 3.37639 71.5633C3.39762 71.5522 3.41873 71.5412 3.43968 71.5303C3.61159 71.4409 3.77297 71.357 3.90676 71.2477C3.98121 71.1919 4.0677 71.1237 4.12569 71.0754L4.22823 70.9927L4.24304 70.981C4.37658 70.8751 4.51555 70.765 4.65546 70.6029C4.51545 70.7055 4.37975 70.8135 4.2487 70.9266C4.23661 70.9371 4.22446 70.9477 4.21224 70.9583C4.18915 70.9783 4.16583 70.9986 4.14235 71.0192L4.07773 71.0758L3.95472 71.175C3.79177 71.3118 3.59351 71.4143 3.38301 71.5057C2.92455 71.68 2.41882 71.7009 1.94662 71.565C1.88422 71.547 1.82181 71.5276 1.7596 71.5063C1.60328 71.439 1.45358 71.3582 1.31231 71.2649C1.291 71.2511 1.28427 71.2457 1.27968 71.2421L1.27919 71.2417L1.26054 71.2271L1.22301 71.1981L1.14736 71.139L1.13793 71.1314L1.13311 71.1275L1.04421 71.0498L1.0398 71.0452L1.00468 71.0074L0.935249 70.9301C0.843544 70.8247 0.754047 70.7164 0.688229 70.5879L0.620804 70.4901C0.57016 70.4183 0.527317 70.3417 0.492973 70.2615C0.453239 70.1745 0.417122 70.0844 0.391838 70.0162C0.368359 69.9478 0.35973 69.9003 0.35973 69.9003L0.349899 69.7994C0.349068 69.7836 0.347698 69.7662 0.34621 69.7473C0.341599 69.6889 0.335861 69.616 0.341473 69.5331C0.350601 69.408 0.366875 69.2835 0.390232 69.1602C0.428963 69.0242 0.466892 68.8926 0.533512 68.7432C0.596035 68.6177 0.668282 68.4969 0.749634 68.3819L0.789364 68.3272C0.805019 68.3059 0.802807 68.3111 0.810432 68.3018L0.927425 68.1747L1.01451 68.0819L1.02134 68.0759L1.03458 68.0639L1.05906 68.0422C1.07238 68.0304 1.08562 68.0185 1.0988 68.0066C1.10875 67.9977 1.11683 67.9905 1.12269 67.9854C1.12984 67.9791 1.13372 67.9758 1.13372 67.9758C1.08916 68.0112 1.05264 68.0381 1.02073 68.0602L1.0089 68.0682L1.00327 68.0721L1.00288 68.0722L0.921005 68.1596L0.920197 68.1602L0.918999 68.1614L0.916187 68.1635L0.896118 68.1792L0.859196 68.2067L0.791367 68.253L0.756657 68.277C0.741207 68.2904 0.705082 68.3354 0.678394 68.3689C0.619999 68.4431 0.554985 68.5345 0.485954 68.6554L0.434784 68.751L0.399063 68.8374C0.374981 68.8984 0.350296 68.9668 0.326015 69.0433C0.243942 69.3442 0.156052 69.8143 0.400463 70.4287C0.359528 70.3581 0.262608 70.1671 0.22448 69.8854C0.207222 69.7438 0.188759 69.5818 0.211834 69.4051C0.220192 69.3134 0.232986 69.2221 0.250164 69.1315C0.274445 69.0389 0.303345 68.9436 0.336857 68.8476C0.376389 68.6868 0.590096 68.3371 0.699661 68.209L0.794582 68.1034L0.908958 67.98L0.935452 67.9558L0.98843 67.907C1.12529 67.7815 1.25838 67.6523 1.38756 67.5195L1.72026 67.3476C1.66446 67.3686 1.79564 67.2196 1.92476 67.0728C2.12295 66.8476 2.31627 66.628 1.821 67.0374L0.877857 67.8599L0.850567 67.8835L0.837322 67.8952L0.830704 67.9008L0.829098 67.9023L0.72916 68.0089L0.726154 68.012L0.63726 68.1067L0.597927 68.1488C0.59692 68.1476 0.568829 68.1858 0.555786 68.2034L0.508827 68.2691C0.449028 68.3551 0.40107 68.434 0.363747 68.4995C0.288895 68.6326 0.25679 68.7089 0.260201 68.7035C0.255989 68.7095 0.287487 68.6217 0.351101 68.4904C0.38731 68.4158 0.426746 68.3428 0.469299 68.2714L0.578465 68.0978L0.664345 67.9572L0.769299 67.8446L0.770699 67.8428L0.773113 67.8395L0.777927 67.8332L0.786758 67.8215C0.792175 67.8144 0.797188 67.808 0.801003 67.8025C0.804535 67.7978 0.807457 67.794 0.809597 67.7913C0.812199 67.788 0.813648 67.7863 0.813648 67.7863L0.767895 67.8289L0.762474 67.8341L0.652103 67.9517L0.640671 67.9645L0.615383 67.9936C0.597122 68.0143 0.576855 68.0379 0.554379 68.0633L0.537323 68.0831L0.528694 68.0932C0.526485 68.0953 0.523273 68.099 0.512035 68.1143C0.392616 68.2749 0.289597 68.4464 0.204414 68.6262C0.157455 68.7366 0.127357 68.8341 0.0936432 68.9449L0.049099 69.109C0.0394669 69.1646 0.0316391 69.2208 0.0246124 69.2774C-0.049633 69.731 0.0563202 70.1892 0.179733 70.5099C0.250771 70.6672 0.322609 70.7947 0.373978 70.8817C0.423744 70.9704 0.462475 71.0134 0.462475 71.0134L0.441605 70.9824C0.427959 70.963 0.410702 70.9338 0.392239 70.8972C0.354313 70.8247 0.306156 70.7263 0.263615 70.6269C0.223274 70.5369 0.191761 70.4435 0.169495 70.3479L0.138794 70.2183C0.162876 70.3054 0.189564 70.3897 0.218056 70.4705C0.243664 70.538 0.276295 70.6016 0.308193 70.6637C0.314041 70.6751 0.319866 70.6865 0.325619 70.6978C0.363747 70.7705 0.403278 70.8398 0.443413 70.9059C0.485153 70.9706 0.53331 71.0283 0.578861 71.0857C0.625015 71.1425 0.67157 71.1963 0.717922 71.2475L0.75264 71.2853L0.769897 71.3037L0.774315 71.3081L0.776524 71.3104L0.891907 71.4114L0.895924 71.4147L0.92662 71.4395L0.932774 71.4444C0.971218 71.4747 1.00749 71.5033 1.0414 71.5306C1.24468 71.6763 1.55352 71.8357 1.71064 71.877C1.88261 71.9276 2.03291 71.9702 2.16616 71.982C2.43425 72.0103 2.62228 72.0031 2.76897 71.9752C2.91565 71.9496 3.02181 71.9301 3.12334 71.889C3.22549 71.8514 3.32663 71.8115 3.46027 71.7561C3.48097 71.7453 3.50281 71.7342 3.52576 71.7226C3.6441 71.6626 3.792 71.5875 3.96495 71.4637C4.01971 71.4224 4.07358 71.3799 4.1265 71.3364L4.21379 71.2628L4.25874 71.2234L4.2798 71.2033L4.45699 71.0365C4.63165 70.8768 4.80872 70.7196 4.98817 70.5649C5.61024 70.1448 6.18837 69.606 7.20055 68.5847C6.75142 68.9948 6.77775 68.9299 6.81085 68.8483C6.83448 68.7901 6.86155 68.7234 6.72155 68.8149C7.26959 68.2287 7.59473 67.9861 7.90784 67.7524C8.00883 67.6771 8.10857 67.6026 8.21413 67.5179C8.35941 67.2823 8.45734 67.1099 7.78229 67.7754C7.68913 67.7668 7.91069 67.56 8.15379 67.333C8.40346 67.0999 8.67586 66.8456 8.65339 66.763C9.65355 65.8001 10.1907 65.4116 10.6951 65.0466C11.3324 64.5857 11.9175 64.1624 13.3179 62.6667L13.1759 62.721C14.131 61.8557 14.8382 61.1683 15.5468 60.4794C16.1228 59.9195 16.6996 59.3587 17.4114 58.7008L18.5255 57.4141C18.2474 57.6514 17.4857 58.2408 17.6775 57.9539C17.3894 58.3501 17.0396 58.7105 16.6832 59.0778C16.4436 59.3247 16.2009 59.5747 15.972 59.8408C15.9005 59.8679 16.0221 59.7172 16.1267 59.5876C16.1598 59.5467 16.1912 59.5078 16.2142 59.4773C16.0572 59.6296 15.9402 59.7589 15.8209 59.8906C15.6468 60.0828 15.4681 60.2803 15.1535 60.5622C15.1542 60.5455 15.2253 60.4596 15.2941 60.3764C15.4139 60.2317 15.527 60.095 15.2518 60.3444L14.6247 61.0812C14.1933 61.4697 14.0238 61.5672 13.8726 61.6542C13.6865 61.7614 13.5281 61.8525 12.9425 62.4513C13.2062 62.3137 13.7089 61.9979 14.1465 61.6036C13.9248 61.8293 14.0515 61.7228 14.215 61.5852C14.41 61.4212 14.6574 61.213 14.4295 61.4713C13.9778 61.8104 13.6923 62.0861 13.3521 62.4147C13.0828 62.6747 12.7792 62.9679 12.3319 63.3518C12.3678 63.3241 12.3974 63.3033 12.427 63.2825C12.5 63.2313 12.5733 63.1797 12.7448 63.0219L11.3953 64.3983C11.5344 64.2154 11.2646 64.4482 10.9511 64.7188C10.6094 65.0137 10.2157 65.3534 10.2423 65.2491C10.9171 64.5683 11.1928 64.3064 11.4615 64.0512C11.7687 63.7594 12.0668 63.4761 12.9419 62.5855C12.4472 63.029 11.7525 63.5462 11.3911 63.7537C11.3795 63.7707 11.3576 63.7967 11.3072 63.848C11.1084 63.9512 11.1128 63.8968 11.1199 63.8092C11.1248 63.7493 11.1309 63.6738 11.0739 63.6227C11.5622 63.256 11.9135 62.9138 12.2998 62.5375C12.5981 62.2468 12.9173 61.9358 13.3368 61.5774C13.5814 61.4842 12.905 62.1769 12.4348 62.5937L13.2832 61.8694L13.0918 61.9884L15.0955 60.0059C14.7913 60.2937 14.6188 60.4079 14.4465 60.522C14.3989 60.5536 14.3512 60.5851 14.3008 60.6203C14.5597 60.3647 14.7993 60.0954 15.0535 59.8087C15.0662 59.9328 15.1527 59.9456 15.4067 59.698C16.695 58.4216 17.3572 57.6595 17.7582 57.1166L17.9151 56.9748C17.8235 57.1508 18.2607 56.8051 18.7179 56.4436C18.9912 56.2276 19.2716 56.0059 19.4506 55.8865C19.3921 55.854 19.6442 55.5984 19.9254 55.3133C20.1004 55.1359 20.2866 54.9471 20.4162 54.7935C20.5071 54.7586 20.5542 54.7722 20.5637 54.8233C21.8625 53.5133 23.1622 52.2468 24.4121 51.046C24.62 50.9654 24.8278 50.864 25.0237 50.7684C25.3232 50.6223 25.5951 50.4897 25.797 50.4655C26.6619 49.6827 27.8195 48.6037 28.4936 47.8494L28.3978 47.886C28.7031 47.566 29.0251 47.2613 29.3627 46.9731C29.5493 46.7517 29.4264 46.829 29.3207 46.8955C29.2357 46.9489 29.1619 46.9954 29.2691 46.8739L30.5183 45.7625C30.3929 45.7692 29.5725 46.549 29.0538 47.0419C28.9923 47.1004 28.935 47.1548 28.8837 47.2034L28.8856 47.2018C28.9823 47.1191 29.1731 46.9561 29.1237 47.0209C28.9085 47.25 28.5911 47.5333 28.2799 47.8111C27.8239 48.2182 27.3812 48.6133 27.2932 48.8083C27.2027 48.8855 27.2301 48.8686 27.2822 48.8366C27.3964 48.7664 27.6291 48.6234 27.0008 49.2367C26.4206 49.8664 26.1343 49.977 26.0412 50.0115C26.0208 50.0001 26.1862 49.8178 26.3516 49.6355C26.5718 49.3927 26.792 49.15 26.5723 49.3121C26.7445 49.149 26.8858 49.0266 27.0223 48.9082C27.2696 48.6938 27.5012 48.4929 27.8731 48.0889C27.7024 48.2506 27.5011 48.4244 27.3038 48.5947C26.9465 48.9031 26.6024 49.2002 26.4768 49.3938C25.4671 50.2337 25.4259 49.9336 25.8594 49.4963C25.8395 49.5576 26.113 49.3228 26.38 49.0936C26.7894 48.7421 27.1835 48.4038 26.4812 49.166C26.8666 48.8784 27.3994 48.3968 27.9316 47.9157C28.2617 47.6173 28.5916 47.319 28.8859 47.0676L28.8387 47.0858L29.7554 46.2349C29.7145 46.2637 29.6625 46.3037 29.6078 46.3457C29.4667 46.4543 29.3076 46.5767 29.2744 46.5569L30.62 45.4517C30.1197 45.8499 30.4354 45.5324 30.7964 45.1695C30.9898 44.9751 31.1961 44.7677 31.2969 44.6502C31.3576 44.6268 31.4524 44.5675 31.5395 44.5129C31.7263 44.396 31.8779 44.3012 31.5821 44.63C31.3124 44.9352 31.2389 44.9821 31.1429 45.0434C31.0669 45.092 30.9768 45.1495 30.7641 45.3512L31.5301 44.7864L31.5792 44.7218L32.0601 44.401C32.5059 43.9655 32.3808 44.0072 32.2802 44.0407C32.1745 44.0759 32.0958 44.1021 32.7373 43.5545L32.6847 43.8C33.2127 43.279 33.7849 42.6861 34.3464 42.1043C35.2209 41.1983 36.0695 40.319 36.6853 39.7794C36.3618 39.9809 36.1523 40.0049 36.4633 39.5988C36.0648 40.0171 35.2256 40.8206 34.6196 41.3873C34.5227 41.5152 35.4841 40.783 36.1104 40.1363C36.0346 40.3719 35.5873 40.7508 35.1787 41.0969C34.7849 41.4304 34.4271 41.7334 34.4719 41.8489C33.6813 42.6683 33.3324 42.9289 33.0221 43.1606C32.7073 43.3957 32.4321 43.6012 31.7759 44.3305C31.7266 44.3024 31.6095 44.3998 31.4891 44.4998C31.3798 44.5907 31.2678 44.6838 31.2014 44.6874C31.3739 44.3819 31.9948 43.8099 32.6532 43.2034C33.1122 42.7805 33.5895 42.3409 33.9455 41.9632C33.851 42.0438 33.6608 42.206 33.6116 42.2261C34.2359 41.5811 34.5216 41.337 34.9982 40.9297L35.0069 40.9223L34.9585 40.9861C35.4893 40.56 35.533 40.4578 35.5871 40.3317C35.6213 40.2519 35.6596 40.1625 35.8278 39.9755C35.8859 39.9259 35.9837 39.8321 36.0907 39.7296C36.3375 39.493 36.6326 39.2101 36.598 39.3175L37.3726 38.4324L37.4153 38.5523C37.6053 38.3726 37.728 38.2398 37.8366 38.1223C38.0035 37.9417 38.137 37.7973 38.4297 37.5741L38.5244 37.6268L37.3657 38.7957C37.6665 38.528 37.7331 38.4966 37.7966 38.4666C37.8651 38.4343 37.9299 38.4037 38.2802 38.0811C37.8708 38.3975 37.9908 38.2617 38.2136 38.0296C38.2429 37.999 38.2739 37.9668 38.3058 37.9338C38.3951 37.8412 38.4908 37.742 38.5714 37.6539C38.6189 37.6027 38.6645 37.5498 38.708 37.4954C38.7227 37.4766 38.7365 37.4571 38.7494 37.4371C38.7626 37.421 38.7733 37.403 38.7809 37.3838L38.7864 37.379C38.8988 37.2814 39.0112 37.1837 39.1168 37.0816L39.3407 36.8531L39.4537 36.7375C39.4781 36.7124 39.4968 36.6849 39.5156 36.6573C39.5258 36.6423 39.536 36.6272 39.5472 36.6125L39.4645 36.7198L39.3624 36.8181L39.4505 36.7006L39.5133 36.5875C39.5252 36.5658 39.5375 36.5452 39.5495 36.525C39.5775 36.4779 39.6039 36.4336 39.6195 36.386L39.7001 36.2004C39.714 36.1634 39.7248 36.1259 39.7357 36.0883C39.7426 36.0643 39.7496 36.0403 39.7573 36.0163C39.7987 35.9048 39.8123 35.7835 39.8283 35.6419C39.8298 35.6282 39.8314 35.6144 39.833 35.6003C39.8304 35.5203 39.8256 35.4331 39.8167 35.3368C39.8067 35.2688 39.7885 35.1973 39.7688 35.1202C39.7609 35.0889 39.7527 35.0568 39.7447 35.0235L39.83 35.3124C39.8458 35.4089 39.8595 35.5036 39.8715 35.5974C39.8729 35.6881 39.869 35.7778 39.8651 35.8671L39.8647 35.8758C39.8594 35.9363 39.8478 35.9954 39.8362 36.0545C39.8302 36.0851 39.8242 36.1156 39.8191 36.1463C39.7744 36.3226 39.7142 36.4987 39.6122 36.6613C39.5775 36.7355 39.521 36.8029 39.4633 36.8719C39.4541 36.8829 39.4448 36.8939 39.4357 36.905L39.2266 37.1531L38.8381 37.516C38.7548 37.5897 38.6737 37.6586 38.5819 37.7346L38.7937 37.5594C38.8168 37.5413 38.8795 37.4848 38.9418 37.4286C38.9576 37.4143 38.9734 37.4001 38.9886 37.3865L39.2384 37.1606C39.2711 37.1243 39.3051 37.0877 39.3395 37.0506C39.489 36.8894 39.647 36.7191 39.7509 36.5263C39.8715 36.2845 39.963 36.0239 39.9871 35.7712C40.0481 35.2624 39.8773 34.8456 39.8001 34.6672C39.7135 34.4572 39.5532 34.2885 39.3999 34.1272C39.3606 34.0858 39.3218 34.045 39.2847 34.004C39.2702 33.9886 39.2552 33.973 39.2401 33.9571C39.0709 33.7791 38.8756 33.5737 38.8015 33.5202C38.74 33.4667 38.6783 33.414 38.6162 33.3608C38.4525 33.2207 38.2858 33.0779 38.1094 32.9137C38.4746 33.2901 38.4463 33.341 38.4185 33.391C38.4126 33.4017 38.4066 33.4124 38.4046 33.4262C38.399 33.4653 38.4247 33.5297 38.57 33.6918L38.9855 34.1369L39.3536 34.5207C39.3915 34.569 39.4246 34.6217 39.4589 34.6764C39.4787 34.7079 39.4989 34.74 39.5207 34.7724C39.5322 34.799 39.5444 34.8258 39.5568 34.8531C39.5897 34.9256 39.6241 35.0011 39.6502 35.083C39.6546 35.0113 39.5334 34.7242 39.4461 34.635C39.6219 34.7825 39.8294 35.2173 39.7772 35.7263C39.7601 35.9797 39.6594 36.2345 39.5358 36.4615C39.4308 36.6366 39.2815 36.7861 39.1445 36.9232C39.1079 36.9599 39.0721 36.9956 39.0383 37.0308L38.6731 37.3427C38.7068 37.2777 38.6625 37.2955 38.6256 37.3102C38.6084 37.3171 38.5929 37.3233 38.5876 37.3203L38.5862 37.3199C38.5764 37.3172 38.5677 37.3149 38.6087 37.2647C38.6544 37.2094 38.7449 37.1112 38.9053 36.9444L39.1242 36.6791C39.0592 36.7706 39.0847 36.7673 39.175 36.6909C39.1783 36.688 39.1818 36.685 39.1854 36.6819C39.2056 36.6644 39.2293 36.644 39.2536 36.6197L39.3361 36.515C39.3451 36.5027 39.3548 36.4902 39.3648 36.4773C39.3869 36.4488 39.4104 36.4185 39.4306 36.384C39.4538 36.3371 39.4785 36.2875 39.5046 36.2352L39.5133 36.2178C39.6159 35.9793 39.6943 35.6559 39.6357 35.319C39.5783 34.9824 39.4258 34.6531 39.1505 34.4149L39.1601 34.5403C39.1668 34.6004 39.1613 34.661 39.1589 34.6622C39.1652 34.6593 39.0928 34.5859 38.9818 34.4734L38.953 34.4442L38.4955 33.9803L37.9995 33.5148L38.0853 33.6085C37.846 33.4564 37.5655 33.171 37.245 32.845C36.9714 32.5667 36.6688 32.2588 36.3379 31.9791C36.1917 31.8112 35.8881 31.5071 35.5793 31.1978C34.9496 30.5672 34.2989 29.9155 34.9202 30.3558C34.4688 30.0146 34.1242 29.6334 33.7544 29.2243C33.5685 29.0186 33.3763 28.806 33.1609 28.5878L34.0314 29.3355C33.7605 29.0243 33.5933 28.8382 33.4733 28.7046C33.2 28.4004 33.1725 28.3698 32.7247 27.7577C32.6979 27.7469 32.6659 27.7304 32.6346 27.7142C32.5362 27.6634 32.444 27.6157 32.5382 27.7562C32.3306 27.5576 32.1083 27.3462 31.8785 27.1277C30.6557 25.9646 29.2209 24.6 28.6569 23.8988C28.2802 23.5391 28.0099 23.3248 27.7384 23.1096C27.3426 22.7958 26.9444 22.4801 26.2103 21.709C26.1182 21.6084 26.1344 21.5933 26.1511 21.5777C26.1806 21.5502 26.2115 21.5214 25.6432 21.0144C25.6255 21.0017 25.6703 21.0592 25.7272 21.1322C25.8821 21.331 26.1265 21.6445 25.4364 20.9649C25.1389 20.5893 24.7219 20.2124 24.2782 19.8114C23.8449 19.4198 23.3863 19.0053 22.989 18.5467C22.8257 18.4097 22.6306 18.2327 22.4453 18.0645C22.0647 17.7192 21.7259 17.4117 21.7908 17.5677C22.5453 18.2644 23.575 19.2874 23.6998 19.4742C23.6744 19.4137 23.7767 19.4925 23.8599 19.5567C23.9693 19.641 24.0458 19.7 23.7558 19.3833C24.3703 19.9218 24.5268 20.0993 24.6874 20.2814C24.8324 20.446 24.9808 20.6143 25.4735 21.056C25.5138 21.1504 24.8797 20.6358 24.6909 20.4038C24.6449 20.4441 25.0266 20.8397 25.3715 21.1972C25.7967 21.638 26.1662 22.0209 25.6101 21.6092C25.1332 21.1558 24.845 20.8045 24.5827 20.4847C24.2523 20.0818 23.9629 19.729 23.3887 19.2855C23.5215 19.4626 23.7122 19.6571 23.9158 19.865C24.1908 20.1455 24.4894 20.4503 24.7015 20.7691L23.9006 20.0715L23.4184 19.4696L23.4371 19.5153C22.5848 18.795 22.3415 18.4721 22.0425 18.0752C21.8381 17.8038 21.6076 17.4979 21.1388 17.0069C21.5511 17.3344 21.5215 17.2163 21.495 17.1106C21.4724 17.0201 21.452 16.9387 21.7131 17.1538C20.9207 16.3647 20.3167 15.8065 20.2133 15.8958C20.9411 16.677 20.9213 16.7084 20.8995 16.7429C20.8787 16.7761 20.8559 16.8122 21.4898 17.5165C21.3957 17.4498 21.3928 17.4892 21.3897 17.5314C21.3842 17.6073 21.3779 17.6925 20.8376 17.1842C20.3891 16.6812 20.5029 16.7514 20.5909 16.8056C20.6726 16.8559 20.7321 16.8926 20.2988 16.4443L20.2966 16.4427C20.2335 16.3985 20.1692 16.3534 20.1871 16.3982C20.0037 16.1735 19.8762 16.0573 19.7406 15.9337C19.5968 15.8026 19.444 15.6633 19.2058 15.3775L19.3091 15.5152C18.9573 15.2332 18.7995 15.0474 18.6509 14.8726C18.5044 14.7001 18.3669 14.5383 18.0612 14.3052C18.2502 14.3973 18.0661 14.1979 17.8322 13.9446C17.7036 13.8053 17.5599 13.6497 17.4549 13.5173C17.6569 13.6939 17.8375 13.8324 18.0323 13.9818C18.4027 14.2658 18.8246 14.5893 19.5425 15.2897C19.5609 15.3344 19.5682 15.3654 19.5747 15.3935C19.5953 15.4809 19.6089 15.5393 19.9304 15.8903L19.2216 15.1923C19.3108 15.2896 19.384 15.3754 19.4574 15.4615C19.5034 15.5154 19.5494 15.5693 19.5995 15.6263L20.3171 16.2614C19.7958 15.7085 19.783 15.6311 19.7692 15.5476C19.761 15.498 19.7524 15.4463 19.6366 15.2915C19.1859 14.8828 19.0362 14.7266 18.9074 14.5922C18.801 14.4813 18.709 14.3852 18.4735 14.1743C18.447 14.2768 17.4156 13.3798 16.5037 12.5867C16.2595 12.3744 16.0239 12.1695 15.8185 11.9932L16.2481 12.4014C16.6595 12.8672 16.2825 12.5408 15.9742 12.2738C15.8221 12.1421 15.6868 12.0249 15.671 12.0244L15.2752 11.5699C15.3413 11.6497 15.378 11.7138 15.2 11.5607C14.8782 11.235 14.7481 11.0614 14.6178 10.8876C14.488 10.7143 14.358 10.541 14.0377 10.2165C14 10.2154 14.0522 10.3082 14.1031 10.3987C14.1816 10.5382 14.2568 10.6721 13.994 10.447C13.8128 10.3502 13.2561 10.0208 12.4242 9.13804C12.38 9.06112 12.1635 8.83287 11.9088 8.57228C11.9185 8.58293 11.9289 8.59426 11.9392 8.60546C11.9653 8.63375 11.9906 8.66122 12 8.67496L11.3692 8.16365C11.5766 8.44022 11.8355 8.67233 12.0948 8.90476C12.3544 9.13754 12.6144 9.37062 12.8233 9.64896L12.7902 9.76231C13.1765 10.1359 13.6689 10.6741 13.8714 10.9448C13.4603 10.5648 13.2812 10.3795 13.0043 10.0929C12.8755 9.95964 12.7257 9.80453 12.5215 9.59781C12.3818 9.55466 12.8092 10.0357 12.8718 10.1062L12.8721 10.1064L12.8169 9.97001C13.2748 10.3472 13.5598 10.6681 13.8812 11.0301C14.1551 11.3386 14.4555 11.6769 14.9121 12.1054C15.0185 12.204 15.0075 12.1869 14.9853 12.1523C14.9761 12.1379 14.9649 12.1205 14.9594 12.1071C15.2967 12.4989 15.6688 12.8507 16.0383 13.2002C16.4566 13.5957 16.8716 13.9882 17.2294 14.4322L17.0179 14.1516L19.4135 16.8076L19.3924 16.8438C19.2612 16.751 19.6467 17.1213 19.8648 17.3088L19.8642 17.3075L21.1814 18.7598C20.9992 18.6259 20.8251 18.482 20.66 18.3287C20.6119 18.257 20.4413 18.0845 20.2601 17.9013C19.9658 17.6037 19.6433 17.2778 19.7715 17.3082C19.5046 17.1009 19.1914 16.7809 18.9057 16.4891C18.6818 16.2604 18.4748 16.049 18.3205 15.9227C18.6993 16.2288 18.47 15.9673 18.2305 15.6942C18.0868 15.5303 17.9394 15.3622 17.9175 15.3101C17.8049 15.2452 17.6146 15.0634 17.4427 14.8992C17.2404 14.706 17.0637 14.5372 17.0689 14.6116C17.0529 14.6002 17.0456 14.595 17.0455 14.5951C17.0449 14.5959 17.4239 14.8784 17.6064 15.1221C17.877 15.4423 17.5947 15.1961 17.3242 14.9601C17.0471 14.7184 16.7823 14.4875 17.1367 14.8871C16.7186 14.4425 16.2231 13.9499 15.7192 13.4489C15.1156 12.8488 14.4998 12.2366 13.9904 11.6805L14.5749 12.1926C14.4185 12.048 14.1927 11.8308 13.9597 11.6066C13.5186 11.1824 13.0514 10.733 12.9792 10.7038C13.1089 10.835 13.249 10.9736 13.3967 11.1197C13.6151 11.3358 13.8503 11.5685 14.0933 11.8184C14.063 11.8697 13.7525 11.5603 13.4674 11.2763C13.241 11.0507 13.0307 10.8412 12.9895 10.8409L11.891 9.54124L12.4304 10.0541C12.2308 9.80137 11.6184 9.24068 10.9825 8.65846C10.6887 8.38951 10.3899 8.11596 10.1245 7.86604C10.3401 8.18844 10.7231 8.54223 11.1683 8.95354C11.4943 9.25463 11.8536 9.58655 12.205 9.95955C12.5122 10.2948 12.3717 10.2087 12.243 10.1298C12.1223 10.0558 12.0118 9.98816 12.2903 10.28C12.1107 10.1527 11.722 9.772 11.5547 9.56081L11.2996 9.3502C11.5402 9.68048 12.0116 10.1683 12.5071 10.6812C12.9219 11.1106 13.3538 11.5576 13.6814 11.9444C13.6212 11.8671 13.5706 11.7979 13.5594 11.7659C14.2105 12.3249 14.8338 12.9296 15.4087 13.5324C15.1219 13.3024 15.0002 13.1666 14.87 13.0214C14.8429 12.9911 14.8155 12.9604 14.786 12.9284C14.7604 12.9287 14.9251 13.1046 15.1076 13.2997C15.2498 13.4516 15.4028 13.6152 15.4854 13.7164C15.1594 13.4309 15.1473 13.4488 15.1368 13.4643C15.1285 13.4766 15.1212 13.4874 14.958 13.3431C15.2978 13.7138 15.5976 13.9909 16.0469 14.4063L16.0523 14.4112C16.1965 14.5135 16.1418 14.4361 16.077 14.3446C16.0228 14.268 15.9616 14.1815 16.0039 14.1818C16.1915 14.3864 16.3581 14.5195 16.5377 14.663C16.7681 14.8471 17.0199 15.0483 17.3648 15.4393C16.6056 14.7375 17.2111 15.4367 17.5897 15.8738C17.6634 15.9589 17.7285 16.034 17.7732 16.087L17.6211 15.9465C17.8485 16.2705 18.0852 16.5032 18.3291 16.6433C18.2242 16.5289 18.117 16.419 18.0233 16.323C17.8121 16.1067 17.6698 15.9609 17.7794 15.9932C18.017 16.2273 18.2538 16.4606 18.5093 16.7388L18.3018 16.4619L19.4829 17.6244C19.5134 17.6743 19.549 17.7308 19.5869 17.7912C19.7234 18.0082 19.8905 18.274 19.9637 18.4527C20.2493 18.655 20.5584 18.9966 20.8014 19.2653C20.8394 19.3072 20.8757 19.3473 20.9101 19.3849L20.8041 19.2434C21.3716 19.7114 22.5074 20.8749 22.5632 21.0116C22.7069 21.1248 22.4637 20.8186 22.1943 20.4794C21.6876 19.8413 21.0881 19.0865 22.7966 20.7863C23.3965 21.3661 23.4571 21.518 23.5186 21.6722C23.5607 21.7774 23.6031 21.8838 23.8178 22.128C23.8178 22.128 23.7991 22.0833 23.8653 22.1298C24.1419 22.3851 24.2464 22.519 24.364 22.6698C24.4386 22.7654 24.5184 22.8678 24.6507 23.0121C24.365 22.7763 23.9799 22.4065 23.8762 22.2679C23.9158 22.364 24.1672 22.6014 24.4399 22.8589C24.6886 23.0939 24.9552 23.3456 25.0952 23.5223C24.8914 23.2267 25.2228 23.5406 25.4794 23.7836C25.6651 23.9595 25.8115 24.0982 25.6872 23.9416C26.6229 24.7354 27.493 25.7102 27.8895 26.2188C28.28 26.4776 28.5536 26.7626 28.8918 27.115C29.1663 27.401 29.4833 27.7314 29.94 28.128C29.8809 28.0735 29.8066 27.9984 29.7248 27.9158C29.5961 27.7858 29.449 27.6373 29.3145 27.5214C29.0774 27.2256 29.326 27.4474 29.5457 27.6433C29.7658 27.8397 29.9569 28.0101 29.6013 27.6081C29.7112 27.7375 29.5319 27.6065 29.3697 27.4301C29.0518 27.1079 28.7759 26.7818 28.8897 26.8301L29.7407 27.5318L29.4823 27.2495L30.7655 28.3223C30.784 28.3675 30.6542 28.276 30.5877 28.229C31.4426 29.0106 32.3381 29.891 33.1829 30.7215C33.7477 31.2767 34.2898 31.8097 34.7819 32.2759C34.797 32.4818 35.5244 33.2253 36.3558 34.0507L36.9893 34.6779L37.3029 34.9896L37.4213 35.1093L37.4886 35.1808C37.5762 35.2733 37.6595 35.3618 37.6766 35.466C37.6983 35.567 37.6712 35.6617 37.6234 35.7235C37.644 35.7047 37.6639 35.6856 37.6832 35.6671C37.7293 35.6229 37.7718 35.5822 37.8114 35.5563C37.869 35.5195 37.9266 35.5139 37.9672 35.5786C37.9728 35.4924 37.9756 35.3482 37.8851 35.2056C37.8451 35.141 37.7895 35.0772 37.7291 35.008C37.723 35.001 37.7169 34.994 37.7107 34.9869C37.6758 34.9479 37.6415 34.9113 37.5995 34.8699C37.5399 34.811 37.4779 34.7524 37.4137 34.6943C37.3767 34.6791 37.2805 34.6075 37.1815 34.5338C36.9821 34.3854 36.7714 34.2287 37.0112 34.5072C36.2428 33.7405 36.4365 33.8766 36.6856 34.0516C36.8745 34.1844 37.0955 34.3396 36.9524 34.14L37.3292 34.5176L37.6649 34.8629C37.7027 34.9064 37.7414 34.9475 37.7791 34.9875C37.8836 35.0985 37.9805 35.2015 38.0304 35.3252C38.0614 35.4047 38.0745 35.4897 38.0689 35.5744C38.0633 35.6592 38.0391 35.7419 37.9979 35.8169C37.9347 35.9393 37.8254 36.0208 37.7252 36.0956C37.7054 36.1103 37.686 36.1248 37.6674 36.1393L37.5197 36.2504L37.2877 36.4451L36.8276 36.8403L36.8268 36.8864L36.0568 37.5442C36.6365 36.9589 36.4948 36.8789 35.77 37.6547L35.8686 37.5702C35.6298 37.8566 35.1747 38.2772 34.703 38.713C34.4067 38.9868 34.1038 39.2666 33.844 39.523L33.3172 39.9061C32.8099 40.4068 32.736 40.6131 32.667 40.8053C32.6443 40.8686 32.6222 40.9305 32.5852 41.0008C31.8035 41.7677 31.2087 42.2411 30.6222 42.7078C30.4132 42.8741 30.2053 43.0395 29.9903 43.2172C29.8817 43.3601 29.5917 43.6674 29.3188 43.9566C28.8617 44.4408 28.4525 44.8743 29.0237 44.4002C28.6515 44.7265 28.4044 44.8701 28.1659 45.0086C27.757 45.2462 27.3735 45.469 26.4281 46.5732L26.9081 46.2079C26.2919 46.7949 25.5611 47.4663 24.8577 48.1126C23.7443 49.1356 22.6994 50.0956 22.2859 50.5583C22.7032 50.3476 22.1346 50.9861 21.5142 51.6827C21.001 52.259 20.4523 52.8751 20.397 53.0833C20.4052 53.0283 20.1805 53.2174 19.9841 53.3825C19.8654 53.4825 19.757 53.5736 19.7169 53.5967C19.6077 53.7426 19.4115 53.9716 19.1444 54.1578C19.3995 53.8809 19.3107 53.8935 19.2372 53.904C19.1435 53.9173 19.0747 53.9271 19.7757 53.3284C19.0563 53.7856 18.1918 54.4349 16.8913 55.7024L16.9831 55.7542ZM29.6013 27.6081C29.5911 27.5966 29.5805 27.5846 29.5693 27.5721C29.5819 27.5859 29.5925 27.5978 29.6013 27.6081ZM15.2752 11.5699L15.2267 11.5142C15.2429 11.532 15.2599 11.5514 15.2752 11.5699ZM20.5641 54.8253C20.5639 54.8247 20.5638 54.824 20.5637 54.8233C20.5618 54.8253 20.5598 54.8272 20.5579 54.8292C20.5599 54.8279 20.562 54.8266 20.5641 54.8253ZM20.5641 54.8253C20.5824 54.9369 20.4294 55.2196 20.1662 55.5656C19.5381 56.0729 19.4859 56.0884 19.3777 56.1206C19.3203 56.1376 19.2471 56.1593 19.0639 56.2616L17.5739 57.5569L17.9588 57.3176C17.6621 57.6297 17.3475 57.9143 17.0997 58.1384C16.7828 58.4251 16.5752 58.6128 16.6543 58.633C16.8705 58.4816 17.1236 58.2486 17.3763 58.0158C17.6294 57.7827 17.8823 57.5499 18.0975 57.3997L17.6628 57.8826C18.1158 57.5292 18.2024 57.406 18.3044 57.2607C18.4079 57.1135 18.5273 56.9435 19.0607 56.4879C18.9075 56.7127 18.9418 56.6786 19.0782 56.5428C19.2014 56.4202 19.408 56.2146 19.635 56.0419C19.5232 56.1893 19.2334 56.472 18.9439 56.7543C18.482 57.2049 18.0208 57.6548 18.2845 57.5532C18.5258 57.3657 18.8453 57.0132 19.1952 56.6273C19.6796 56.0929 20.2221 55.4944 20.6954 55.1812L20.6472 55.1996C21.4996 54.349 21.9372 54.0263 22.3124 53.7496C22.3759 53.7028 22.4377 53.6572 22.4994 53.6107C22.7556 53.3101 23.1266 52.9829 23.4849 52.6668C23.671 52.5028 23.8536 52.3417 24.015 52.1889L23.9661 52.1637L24.6411 51.5422C24.4076 51.6872 24.1715 51.9343 23.8917 52.2273C23.7137 52.4136 23.5179 52.6185 23.2938 52.8275L23.2946 52.6923C22.8617 53.2315 22.4339 53.5338 22.0052 53.8368C21.8692 53.9329 21.7331 54.029 21.5968 54.1328C21.9083 53.8776 22.2916 53.5125 22.6613 53.1603C23.2379 52.611 23.7818 52.0929 23.9701 52.0711L24.3558 51.5631L24.5994 51.3769C24.8863 50.9979 24.4567 51.2529 23.7822 51.8737L23.7778 51.8796C23.684 52.0031 23.6375 52.0644 23.6861 52.0453C23.6278 52.0913 23.5695 52.1358 23.5093 52.1818C23.2216 52.4017 22.889 52.6559 22.2907 53.2594L22.7221 52.9137C21.8109 53.8032 20.9508 54.5824 20.5641 54.8253ZM17.6775 57.9539C17.6859 57.9413 17.6962 57.9269 17.7084 57.9108C17.6982 57.9252 17.6878 57.9396 17.6775 57.9539ZM2.13352 1.16798L2.13485 1.16643L2.13605 1.16527C2.13518 1.1662 2.13434 1.16711 2.13352 1.16798ZM13.5675 13.3732C13.5425 13.3479 13.5173 13.3224 13.4919 13.2966C13.5198 13.324 13.5448 13.3495 13.5675 13.3732ZM22.9839 48.8298C23.0024 48.818 23.0171 48.812 23.0271 48.8131L22.9839 48.8298ZM8.10223 64.1735L7.74115 64.4582C7.76007 64.4683 7.65035 64.5921 7.53783 64.719C7.36626 64.9126 7.18818 65.1135 7.44958 64.9301C6.89154 65.5435 6.46991 65.8757 6.09202 66.1733C6.01039 66.2376 5.9308 66.3003 5.85232 66.3639C5.76394 66.4032 5.6525 66.4614 5.4776 66.574C4.9932 67.0325 4.89927 67.1237 4.80257 67.2119C4.70714 67.299 4.60901 67.383 4.13031 67.8142L4.85593 66.9925C4.21643 67.5918 4.16579 67.551 4.12934 67.5216C4.11909 67.5134 4.10996 67.506 4.08917 67.514C4.83535 66.7102 5.10461 66.5335 5.36128 66.3652C5.55293 66.2394 5.73757 66.1183 6.1085 65.7441C6.34143 65.567 6.15332 65.7548 5.98211 65.9257C5.80153 66.1059 5.63976 66.2674 6.01057 65.9623C6.42552 65.551 6.48089 65.5217 6.56001 65.4798C6.63699 65.439 6.73645 65.3863 7.21158 64.9582L7.02155 65.0758C7.181 64.8654 7.38222 64.6981 7.59787 64.5188C7.70764 64.4275 7.82115 64.3331 7.9348 64.2284C8.03781 64.1405 8.07472 64.146 8.10223 64.1735ZM6.04981 66.2842C6.29109 66.0738 6.51663 65.891 6.58068 65.8958C6.50908 65.9689 6.437 66.042 6.36457 66.115C6.22005 66.2073 6.12933 66.2513 6.04981 66.2842ZM6.30848 66.1715C5.78906 66.6934 5.25407 67.2083 4.7585 67.6673C4.78801 67.633 4.81697 67.5988 4.84605 67.5644C5.05471 67.3179 5.27078 67.0625 5.76094 66.6894C5.72806 66.7017 5.61019 66.7977 5.49937 66.888C5.29707 67.0528 5.11825 67.1985 5.52275 66.7807C5.83827 66.4715 5.96609 66.3934 6.09737 66.3132C6.16002 66.2748 6.22348 66.2361 6.30848 66.1715ZM4.03423 68.3234C3.77654 68.5508 3.54196 68.7507 3.34151 68.9132C3.33802 68.9086 3.33614 68.9027 3.33579 68.8953C3.52026 68.6921 3.6032 68.5888 3.57586 68.5843C3.57 68.609 3.47839 68.7065 3.3534 68.8313C3.45248 68.6137 3.95121 68.0565 4.41907 67.6568C4.04526 68.1135 4.04482 68.1323 4.04263 68.2268C4.04207 68.2511 4.04139 68.2804 4.03423 68.3234ZM3.30412 68.9301L3.3245 68.9269C3.30209 68.945 3.28012 68.9627 3.2586 68.9798C3.27433 68.9627 3.28951 68.9461 3.30412 68.9301ZM3.24379 68.9396L3.16368 68.9521C3.11357 69.0182 2.99356 69.144 2.87862 69.2645C2.82874 69.3168 2.77981 69.3681 2.73796 69.4131L2.77719 69.3905C2.82787 69.3414 2.88612 69.2853 2.9476 69.2262C3.04401 69.1334 3.14835 69.033 3.24379 68.9396ZM2.53144 69.5494L2.52435 69.5426L2.52696 69.5399L2.53699 69.5287L2.54832 69.5222L2.55425 69.5126L2.5677 69.4913L2.57452 69.4804L2.57793 69.4752L2.57973 69.4725L2.58054 69.4709L2.51833 69.5372L2.64536 69.3797C2.73184 69.2751 2.82255 69.171 2.92509 69.061C3.13037 68.8409 3.38342 68.5971 3.74361 68.2784C3.6166 68.3613 3.62171 68.3089 3.62661 68.2585C3.63459 68.1765 3.64201 68.1002 3.07519 68.626C2.81835 68.8747 2.9026 68.8323 2.9875 68.7895C3.03029 68.7679 3.07325 68.7463 3.07278 68.7618C2.84768 68.9658 2.6254 69.1727 2.40602 69.3824L2.37806 69.4153L2.31545 69.4895C2.31431 69.491 2.31248 69.4931 2.31059 69.4952C2.30652 69.4999 2.30217 69.5048 2.30382 69.5047H2.30923C2.31228 69.5046 2.31527 69.5039 2.31806 69.5027C2.32068 69.5016 2.32272 69.5 2.32406 69.4981C2.32509 69.4966 2.32571 69.495 2.32589 69.4932C2.32647 69.4972 2.32468 69.5051 2.32252 69.5147C2.31879 69.5311 2.31395 69.5525 2.31826 69.5672C2.32649 69.6188 2.33512 69.6668 2.37284 69.6897C2.37566 69.6988 2.38508 69.704 2.39592 69.7077C2.39784 69.7087 2.39974 69.7098 2.40155 69.7109C2.3917 69.7023 2.37783 69.6902 2.35859 69.6734L2.36021 69.6746L2.36662 69.6788L2.37927 69.6876L2.40475 69.7046L2.45512 69.7387L2.50508 69.7724C2.51151 69.7759 2.52595 69.7883 2.52555 69.7844L2.52435 69.7746C2.52435 69.7616 2.51434 69.7532 2.50765 69.7476C2.50055 69.7416 2.49718 69.7388 2.51351 69.737C2.51809 69.7357 2.52287 69.7354 2.52756 69.736C2.52946 69.7362 2.53134 69.7366 2.53318 69.7372C2.53938 69.7326 2.54639 69.7292 2.55385 69.7271C2.56063 69.7292 2.56686 69.7244 2.57291 69.7197C2.57831 69.7155 2.58357 69.7115 2.58897 69.7126C2.59224 69.7122 2.59457 69.7089 2.59681 69.7056C2.59869 69.7029 2.60052 69.7003 2.60281 69.6996C2.60682 69.6959 2.61425 69.699 2.61565 69.6897C2.61866 69.6839 2.62248 69.6808 2.6281 69.68C2.62971 69.6782 2.63071 69.6756 2.63171 69.6729C2.63308 69.6693 2.63443 69.6658 2.63733 69.6643C2.64054 69.6616 2.64054 69.6641 2.64817 69.6585L2.70195 69.605C2.91336 69.3965 3.12926 69.1924 3.3495 68.9926C3.24134 69.079 3.10349 69.2055 2.94415 69.3566L2.69051 69.6008L2.65699 69.6333C2.64495 69.6451 2.63271 69.6572 2.63412 69.6531C2.63278 69.6531 2.63146 69.6534 2.6302 69.6538C2.63095 69.6548 2.63165 69.6558 2.63206 69.6565C2.63297 69.6581 2.63249 69.6584 2.62808 69.6547C2.62681 69.6554 2.62566 69.6563 2.62469 69.6573C2.62288 69.6665 2.61465 69.6661 2.60903 69.668C2.5969 69.6746 2.58329 69.6782 2.56937 69.6786C2.56489 69.6787 2.56043 69.6785 2.55601 69.6779C2.55914 69.6795 2.56217 69.6812 2.56509 69.6831C2.57095 69.687 2.57615 69.6918 2.58054 69.6973L2.58676 69.706L2.58937 69.7106L2.58034 69.7031L2.54922 69.6768C2.5423 69.6754 2.53556 69.6732 2.52916 69.6701C2.53474 69.6708 2.54021 69.672 2.54549 69.6737L2.50581 69.6402L2.50568 69.6409L2.50554 69.6412C2.51255 69.6473 2.51964 69.6535 2.49209 69.6295C2.48032 69.6386 2.47416 69.6432 2.4778 69.6399C2.47971 69.6352 2.48242 69.6298 2.48566 69.6239C2.47456 69.6143 2.45918 69.6009 2.43816 69.5825L2.43726 69.5818L2.43666 69.5812C2.43716 69.5816 2.43766 69.5821 2.43816 69.5825L2.43987 69.5839L2.45993 69.601L2.48599 69.6233C2.49231 69.612 2.50055 69.599 2.50872 69.5861C2.51168 69.5815 2.51464 69.5768 2.51749 69.5722L2.47599 69.5359L2.51952 69.569C2.52229 69.5645 2.52493 69.5602 2.52736 69.556L2.53144 69.5494ZM2.56025 69.5768C2.56256 69.5795 2.56472 69.5824 2.56669 69.5855C2.56686 69.5859 2.56657 69.5853 2.5663 69.5846C2.56591 69.5837 2.56556 69.5827 2.56649 69.5843C2.56728 69.5858 2.56772 69.5866 2.56793 69.5869C2.57094 69.5971 2.57597 69.6067 2.58274 69.6151M2.58293 69.6153C2.58023 69.6142 2.57744 69.6132 2.57465 69.6123L2.61068 69.6408C2.61108 69.6401 2.61161 69.6396 2.61245 69.6395L2.61673 69.6377L2.61626 69.6372C2.61444 69.6354 2.61256 69.6337 2.61062 69.632L2.60703 69.6306C2.60424 69.6294 2.60123 69.6289 2.59819 69.6289C2.59468 69.6298 2.58545 69.6177 2.58293 69.6153ZM2.58293 69.6153C2.59303 69.6193 2.60236 69.625 2.61062 69.632ZM2.61062 69.632L2.61405 69.6333C2.61987 69.6304 2.61264 69.6444 2.63131 69.6277C2.62228 69.637 2.61987 69.6385 2.62007 69.6372L2.61706 69.6376L2.61673 69.6377L2.62709 69.6494C2.62748 69.6502 2.62892 69.652 2.6302 69.6538C2.62978 69.6539 2.62936 69.6541 2.62895 69.6543C2.62865 69.6544 2.62837 69.6546 2.62808 69.6547C2.62739 69.6541 2.62659 69.6535 2.62569 69.6527L2.61068 69.6408C2.61034 69.6414 2.6101 69.6422 2.60987 69.643C2.60919 69.6453 2.60852 69.6475 2.60542 69.6457C2.60066 69.6425 2.5982 69.6436 2.59592 69.6446C2.5933 69.6458 2.59092 69.6469 2.58555 69.6411C2.57827 69.6438 2.5704 69.6328 2.56461 69.6248C2.56147 69.6204 2.55895 69.6168 2.55746 69.6168L2.55741 69.6152C2.55731 69.6122 2.55724 69.6099 2.55696 69.6086C2.55784 69.6088 2.55896 69.6089 2.56047 69.6091C2.56529 69.6098 2.57003 69.6109 2.57465 69.6123L2.54476 69.5887C2.54987 69.5848 2.55506 69.5808 2.56025 69.5768M2.54033 69.5922L2.54583 69.597C2.54463 69.5974 2.54313 69.5979 2.54131 69.5986L2.5392 69.5994C2.53912 69.5986 2.53617 69.5992 2.53191 69.6002C2.53104 69.6004 2.53011 69.6006 2.52914 69.6009C2.53278 69.598 2.53654 69.5951 2.54033 69.5922ZM2.50429 69.6201C2.50381 69.6219 2.50411 69.6233 2.50468 69.6245C2.50608 69.6277 2.50912 69.6304 2.50629 69.638L2.50589 69.6399L2.50581 69.6402L2.49966 69.6351L2.4927 69.6291C2.4925 69.6292 2.49229 69.6294 2.49209 69.6295C2.49013 69.6278 2.48799 69.626 2.48566 69.6239C2.48577 69.6237 2.48588 69.6235 2.48599 69.6233L2.4927 69.6291C2.49614 69.6264 2.50003 69.6234 2.50429 69.6201ZM2.41756 69.7248C2.42809 69.734 2.4225 69.7291 2.41752 69.7248ZM16.6225 56.4426C16.5983 56.4644 16.5724 56.4877 16.5447 56.5125C16.5728 56.486 16.5989 56.4626 16.6225 56.4426ZM14.2632 57.7511L15.2612 56.8043C14.9028 57.1136 14.5886 57.3952 14.3053 57.649C14.1442 57.7934 13.993 57.9288 13.8496 58.0552L14.2632 57.7511ZM4.53626 69.439L6.1697 67.8136L6.07118 67.987C6.21328 67.8376 6.35516 67.7118 6.48272 67.5988C6.65906 67.4425 6.80802 67.3105 6.89232 67.1738C6.89212 67.1643 6.7667 67.2503 6.56944 67.3918L5.81392 67.9438C5.29876 68.3236 4.78664 68.7072 4.2776 69.0947C3.93544 69.4125 3.59735 69.7343 3.26341 70.0602C3.24934 70.0734 3.23508 70.0876 3.22091 70.1017C3.19585 70.1267 3.17102 70.1514 3.14783 70.1702L3.04388 70.2545C3.02792 70.2633 3.01214 70.2725 2.99641 70.2817C2.93741 70.316 2.87922 70.3498 2.81552 70.3638C2.6606 70.4211 2.50649 70.4139 2.38047 70.4002C2.37726 70.4089 2.63512 70.4442 2.63612 70.432L2.72843 70.4238C2.74695 70.4202 2.76485 70.4148 2.78266 70.4093C2.79361 70.406 2.80452 70.4027 2.81552 70.3998L2.9004 70.376L2.97666 70.3368L3.05171 70.2996L3.11552 70.2495C3.12383 70.2429 3.13212 70.2365 3.1404 70.2302C3.17406 70.2042 3.20747 70.1785 3.24114 70.1437L3.69225 69.7159C3.96154 69.4628 4.16964 69.2727 4.32395 69.1381C4.63258 68.8686 4.72609 68.8205 4.66509 68.9325C4.60409 69.0445 4.38897 69.3163 4.08014 69.6864L3.55418 70.308C3.53614 70.3276 3.52069 70.3464 3.50514 70.3653C3.47435 70.4028 3.44317 70.4408 3.39064 70.4866C3.32101 70.5536 3.24756 70.6207 3.15646 70.6683C2.98449 70.7813 2.77077 70.8359 2.54943 70.8565C2.79525 70.8505 3.04368 70.792 3.25478 70.6608C3.29233 70.6422 3.32429 70.6158 3.35624 70.5893C3.37158 70.5766 3.38692 70.5639 3.40288 70.5521C3.45044 70.5139 3.50161 70.4721 3.5293 70.4417L3.72937 70.2431L4.53626 69.439ZM7.23203 66.277C7.17468 66.2819 7.13049 66.2858 6.66055 66.7691C6.72757 66.7427 6.69888 66.7946 6.62443 66.8836L7.29647 66.2605C7.26661 66.274 7.24876 66.2756 7.23203 66.277ZM7.69459 63.2321L7.76102 63.172C7.97313 62.9666 8.08329 62.8519 8.13767 62.7884L7.69459 63.2321ZM6.36175 64.5653L6.57506 64.4837C6.73479 64.2962 6.75908 64.2237 6.77734 64.1495L6.36175 64.5653ZM2.36623 68.8668C2.49686 68.7649 2.61385 68.6804 2.69753 68.6368C2.93693 68.4545 3.9487 67.4786 3.66094 67.6349C3.35255 67.9598 3.15638 68.0816 2.9835 68.189C2.77751 68.3168 2.60458 68.4242 2.31425 68.8302C2.15632 68.8767 2.30402 68.6913 2.54703 68.4351C2.4501 68.5062 2.38669 68.544 2.36481 68.5402L2.31007 68.5942C2.2019 68.7009 2.0965 68.805 1.99358 68.9062L1.94863 68.9505L1.93358 68.9654L1.91372 68.9893L1.83505 69.084C1.81284 69.1067 1.80218 69.129 1.79175 69.1509C1.78777 69.1592 1.78381 69.1675 1.77926 69.1757C1.77315 69.1879 1.76671 69.1997 1.76029 69.2116C1.75089 69.2289 1.74154 69.2461 1.73331 69.2642C1.72813 69.2874 1.72198 69.3101 1.71599 69.3322C1.70621 69.3684 1.69681 69.4031 1.69258 69.4363L1.68916 69.5773C1.70281 69.6537 1.71947 69.6883 1.73191 69.6552C1.74696 69.6463 1.7588 69.6238 1.76722 69.592C1.7695 69.5865 1.77195 69.5807 1.7745 69.5746C1.78655 69.5459 1.80101 69.5114 1.81178 69.4729C1.81795 69.4463 1.8321 69.4198 1.84686 69.3921C1.85847 69.3703 1.87045 69.3478 1.8792 69.3241C1.88666 69.3118 1.89511 69.3016 1.90334 69.2916C1.91083 69.2825 1.91814 69.2736 1.92435 69.2636C1.9382 69.2437 1.94422 69.2249 1.98375 69.1896L2.07887 69.0947L2.08488 69.0889L2.08789 69.0858L2.0881 69.0856C2.08875 69.0849 2.08941 69.0842 2.0901 69.0834L2.0895 69.0842L2.0881 69.0856C2.05056 69.1254 2.07892 69.0952 2.07024 69.1048L2.07063 69.1044L2.08368 69.0935L2.10997 69.0722L2.16234 69.0296L2.36623 68.8668ZM33.4437 29.8307C33.4437 29.8307 33.4621 29.8764 33.548 29.9702C32.7351 29.1843 32.5207 28.9704 32.0566 28.5075C31.943 28.3942 31.8144 28.2659 31.6583 28.1106L31.8674 28.3888C31.7409 28.3354 31.4549 28.0373 31.0963 27.6636C30.8908 27.4494 30.6614 27.2103 30.4246 26.9783C30.2617 26.7599 29.8708 26.3224 29.5722 26.1108L29.6297 26.25C29.477 26.1758 28.8255 25.5507 28.0934 24.8454L28.3461 25.1768C28.4966 25.3797 28.684 25.6031 28.9192 25.8487C28.9302 25.86 28.9409 25.8711 28.9515 25.8822C28.9406 25.871 28.9299 25.8598 28.9192 25.8487C28.783 25.7085 28.6125 25.5505 28.3724 25.3573L29.5099 26.7504C29.1907 26.4621 29.0332 26.2587 28.8674 26.0447C28.6851 25.8094 28.4928 25.5612 28.0643 25.1727C28.0613 25.1839 28.0579 25.1942 28.0546 25.2041C28.0179 25.315 27.9967 25.379 28.7165 26.1878C29.1349 26.5744 29.0934 26.5055 29.0432 26.4223C29.0028 26.3552 28.9567 26.2789 29.1415 26.4243C29.3631 26.74 29.5616 26.8924 29.7617 27.0459C29.972 27.2074 30.184 27.3701 30.4262 27.7252C30.9076 28.1991 30.9875 28.2231 31.072 28.2485C31.1118 28.2604 31.1526 28.2726 31.2367 28.3322C30.9059 28.0066 30.9781 28.0376 31.0582 28.0721C31.1492 28.1113 31.2505 28.1549 30.7832 27.6851C31.1966 28.0297 31.2951 28.1785 31.3917 28.3243C31.4781 28.4546 31.5628 28.5826 31.8696 28.8461L32.0568 28.8482C32.6438 29.3622 33.899 30.4794 34.5983 31.2682C34.1992 30.9479 34.3579 31.1295 34.5378 31.3352C34.6727 31.4896 34.8195 31.6576 34.7512 31.6371C34.7213 31.4526 33.7868 30.6606 33.7595 30.7061C34.2118 31.1764 35.3251 32.282 35.7164 32.633L35.7989 32.7047C35.7771 32.6867 35.7493 32.6625 35.7164 32.633L34.7797 31.8194C34.9422 32.0252 35.3609 32.5025 35.7046 32.8945C35.9806 33.2091 36.2083 33.4688 36.2167 33.489C36.3954 33.6298 36.5997 33.8127 36.7941 33.9867C37.053 34.2184 37.2944 34.4344 37.4348 34.5151L36.8011 33.7734L36.4908 33.5862L36.1611 33.1249C36.2047 33.1623 36.2527 33.2035 36.304 33.2477C36.8201 33.6915 37.6779 34.4291 37.9256 34.554C36.8498 33.5275 35.2637 31.9045 33.4437 29.8307ZM21.4467 52.5962C19.1426 54.7674 18.7448 55.4219 18.4156 56.0458C18.5474 55.9258 18.6774 55.8075 18.8044 55.6919C19.0182 55.4973 19.2238 55.3102 19.4163 55.1353L19.4143 55.0036C20.1682 54.2503 20.8626 53.6489 21.5608 53.0444C22.2935 52.4098 23.0303 51.7718 23.8442 50.9508C23.6795 51.0405 23.4188 51.2854 23.236 51.4572C23.0999 51.5851 23.007 51.6723 23.0289 51.6249C23.4669 51.1899 23.7145 51.0145 23.9361 50.8575C24.2019 50.6691 24.4302 50.5074 24.9048 49.9557C24.2554 50.5624 24.3878 50.419 24.5844 50.2061C24.7895 49.984 25.0644 49.6862 24.5944 50.0855C24.5383 50.1342 24.4821 50.1827 24.4258 50.2308C24.4904 50.1745 24.5463 50.1264 24.5944 50.0855C25.6852 49.1369 26.7223 48.0747 27.6197 47.1557C28.1724 46.5897 28.6721 46.0779 29.0986 45.6805C28.9313 45.9014 29.2502 45.6311 29.4773 45.4385C29.5779 45.3533 29.6605 45.2833 29.6749 45.2779C29.9647 44.9857 29.8214 45.0408 29.58 45.2698C30.1264 44.6674 30.1704 44.5139 30.0176 44.5542L28.8156 45.6993C28.997 45.506 29.1286 45.3479 29.2519 45.1997C29.3793 45.0466 29.4978 44.9042 29.653 44.7449L29.6526 44.7445C29.653 44.7447 29.653 44.7447 29.6542 44.7439C29.8154 44.5794 29.9861 44.4237 30.1655 44.2778C30.3578 44.1316 30.3664 44.1432 30.385 44.1684C30.3885 44.1731 30.3922 44.1782 30.3975 44.1828L32.0362 42.9256L31.9882 42.9449L33.2891 41.7214L33.0981 41.8401L33.9114 41.1676C33.8615 41.1381 33.9224 41.0658 33.9743 41.0041C34.0189 40.9512 34.0569 40.906 34.0128 40.9024C34.1987 40.5854 34.6948 40.149 35.2639 39.6483C35.7412 39.2285 36.2698 38.7634 36.7102 38.2855L36.5187 38.4039C36.7298 38.2462 37.0176 37.9823 37.3395 37.6684L37.8425 37.1672L38.3892 36.6092C38.4098 36.587 38.4306 36.5649 38.4514 36.5428C38.6108 36.3736 38.7675 36.2073 38.8375 36C38.9219 35.7706 38.9127 35.5288 38.8525 35.3273L38.8453 35.3738C38.859 35.4603 38.8625 35.5481 38.8557 35.6354C38.8506 35.66 38.8466 35.6838 38.8429 35.7066C38.8349 35.7549 38.8277 35.7987 38.8112 35.8361C38.7877 35.8913 38.767 35.9372 38.749 35.9741C38.7339 36.0026 38.7149 36.0235 38.6999 36.04C38.6957 36.0446 38.6918 36.0489 38.6884 36.0529C38.6202 36.1182 38.6276 36.0799 38.6543 35.9426C38.6561 35.9335 38.6579 35.924 38.6599 35.914C38.6469 35.9544 38.6209 35.9938 38.5937 36.0348C38.5867 36.0453 38.5797 36.0559 38.5728 36.0667C38.5472 36.1146 38.5071 36.1558 38.4669 36.1971C38.4605 36.2036 38.4541 36.2102 38.4478 36.2168C38.3821 36.2855 38.3083 36.3462 38.2418 36.401C38.215 36.423 38.1894 36.444 38.166 36.4643C38.1312 36.4944 38.0956 36.5237 38.0593 36.5522C37.9906 36.6216 37.8852 36.7225 37.7655 36.837C37.4027 37.1842 36.9089 37.6568 36.9096 37.7566C37.5324 37.1578 37.4846 37.2207 37.2454 37.5357L37.2431 37.5386C36.9784 37.7472 36.6459 38.0518 36.3374 38.3345C35.8628 38.7693 35.4449 39.1522 35.4174 39.0538C34.9265 39.5237 34.914 39.5492 34.8905 39.5969C34.8725 39.6335 34.848 39.683 34.5967 39.9559C34.5485 40.0638 34.7834 39.885 35.0203 39.7047L35.0284 39.6986L32.4776 42.0785C32.3962 42.0906 32.6671 41.7936 32.9282 41.5074C33.2769 41.125 33.6082 40.7618 33.059 41.18C32.992 41.2309 32.9366 41.2563 32.8736 41.2851C32.7112 41.3594 32.4984 41.4567 31.9071 42.0746C31.9075 42.0955 31.988 42.0325 32.0783 41.956C31.8229 42.1843 31.7151 42.3041 31.567 42.4687C31.4813 42.5639 31.3821 42.674 31.2331 42.8289C31.2029 42.9481 31.4141 42.7654 31.6603 42.5524C31.8263 42.4089 32.0082 42.2516 32.1427 42.1637C32.0716 42.2245 31.9977 42.2863 31.9222 42.3494C31.6916 42.5422 31.447 42.7467 31.2273 42.9682L31.3254 42.929L30.4083 43.7798C30.1794 43.9394 30.3858 43.74 30.6293 43.5049C30.8428 43.2987 31.0848 43.065 31.0862 43.022L30.4619 43.5326C29.7873 44.1532 28.0071 45.8305 27.5211 46.5137C27.0292 47.0402 26.984 47.0202 26.9305 46.9964C26.9053 46.9851 26.8781 46.973 26.8011 47.0174C26.4997 47.2364 26.2587 47.4916 26.0179 47.7465C25.8378 47.9373 25.6577 48.128 25.4524 48.3034C25.4305 48.2684 25.2965 48.3705 25.1528 48.4801C24.9974 48.5985 24.8308 48.7255 24.782 48.6975L24.0588 49.4268C23.7497 49.599 24.1035 49.2667 24.4775 48.9154C24.74 48.6688 25.0124 48.4129 25.0727 48.3154C25.2391 48.0467 25.0333 48.2389 24.8579 48.4028C24.7226 48.5291 24.6054 48.6386 24.6907 48.507C25.0563 48.1668 25.228 48.0455 25.3789 47.9389C25.4663 47.8772 25.5468 47.8203 25.6539 47.7287C25.9874 47.4216 26.1349 47.229 26.0865 47.203C25.6207 47.697 25.4897 47.7758 25.3559 47.8564C25.2406 47.9258 25.1232 47.9965 24.788 48.3346L24.7868 48.3803C24.7309 48.3482 24.3496 48.7128 23.9591 49.0862C23.6937 49.3399 23.4241 49.5977 23.2493 49.7381C22.7432 50.3421 23.3198 49.8468 23.7122 49.5097C23.8814 49.3644 24.0164 49.2484 24.0156 49.2626L23.0038 50.1938C23.225 50.0253 23.2624 50.0328 23.2992 50.0401C23.3424 50.0488 23.3847 50.0573 23.7224 49.7807C23.435 50.0368 23.2789 50.2039 23.134 50.3591C22.9628 50.5425 22.8072 50.7091 22.4693 50.9857C22.9274 50.6743 22.5804 51.0427 22.2257 51.4194C21.9861 51.6739 21.7429 51.9321 21.742 51.987C22.3986 51.4054 23.4136 50.2424 23.4517 50.1548C23.4385 50.1645 23.4314 50.1677 23.4315 50.1634C23.4493 50.1482 23.4556 50.1459 23.4517 50.1548C23.5795 50.0614 24.2767 49.3666 24.54 49.0608L25.1131 48.7054C24.9633 48.8523 24.7942 49.0102 24.6353 49.1587C24.2329 49.5345 23.8958 49.8494 24.1021 49.7697L23.3305 50.4281C23.7967 50.117 24.0055 49.9782 24.2067 49.8292C24.3871 49.6955 24.5615 49.5536 24.91 49.2716C24.2449 50.0243 23.5702 50.6095 22.9288 51.1658C22.331 51.6844 21.762 52.1778 21.2566 52.7585L21.4467 52.5962ZM14.2745 59.8315L15.2197 58.965C15.2542 58.7727 15.2243 58.6961 14.9899 58.9608L15.426 58.4318L14.6548 59.1352C14.8225 58.8846 15.1472 58.5948 15.459 58.3165C15.6009 58.1897 15.7402 58.0654 15.8608 57.9482C16.0537 57.7169 15.7902 57.9419 15.4064 58.2699C15.0214 58.5988 14.5153 59.0312 14.227 59.2103C13.8073 59.5295 13.0885 60.3101 13.0452 60.4192C13.0557 60.4175 13.064 60.4184 13.0701 60.4221C13.0465 60.4367 13.0391 60.4347 13.0452 60.4192C12.9122 60.4412 12.4378 60.8852 11.9574 61.3349C11.6187 61.6518 11.2771 61.9716 11.0498 62.1484C10.4363 62.7378 10.2615 62.974 10.1068 63.1832C9.94575 63.4008 9.80643 63.5892 9.21647 64.116L9.5554 63.67C9.49792 63.7229 9.44231 63.7741 9.38835 63.8237C8.49392 64.6468 8.0519 65.0536 7.05265 66.0756C7.02506 66.1831 7.16459 66.0325 7.34448 65.8382C7.50079 65.6695 7.68755 65.4678 7.82162 65.374L7.38637 65.9468C7.45951 65.8776 7.55983 65.7935 7.66114 65.7085C7.89087 65.516 8.12577 65.3191 8.06102 65.2814C8.07338 65.2888 8.11337 65.2726 8.15147 65.2571C8.25563 65.2148 8.34553 65.1783 7.817 65.6461L8.39272 65.1991C8.37346 65.2353 8.34115 65.2804 8.30101 65.3302L8.77861 64.8889C8.84094 64.8111 8.92809 64.7164 9.02551 64.6106C9.19531 64.4261 9.39636 64.2077 9.55179 63.9856C9.55132 63.9517 9.3545 64.1247 9.17384 64.2836C9.11919 64.3316 9.06602 64.3783 9.02022 64.4177C9.38069 64.0196 9.76737 63.6444 10.1779 63.2945C9.69814 63.7784 9.72705 63.7886 9.77209 63.8045C9.79489 63.8126 9.82183 63.8221 9.78898 63.8953C10.0589 63.6645 10.4051 63.3336 10.708 63.0441C10.9447 62.8178 11.155 62.6168 11.282 62.5084C11.8816 61.877 12.324 61.3104 11.8498 61.6584C12.0152 61.5212 12.1745 61.3726 12.3359 61.222C12.5952 60.98 12.8598 60.7331 13.1634 60.5211C12.7578 60.8463 12.7637 60.904 12.7699 60.9642C12.7769 61.0323 12.7842 61.1038 12.1976 61.5689C12.0024 61.9591 13.1117 60.8107 13.5939 60.2647C13.4138 60.4186 13.4216 60.3772 13.4299 60.3331C13.4349 60.3066 13.4401 60.2791 13.4046 60.2927C14.2218 59.5721 13.9296 60.0007 13.3982 60.566L14.3628 59.7422L14.2745 59.8315Z" fill="#202020"/>
</svg>
