<svg width="512" height="426" viewBox="0 0 512 426" fill="none" xmlns="http://www.w3.org/2000/svg">
<path d="M507.413 50.394C503.704 47.884 498.806 48.011 495.239 50.721C491.627 53.456 485.765 55.808 479.101 57.737C497.346 36.436 497.724 22.196 497.509 18.844C497.264 15.043 494.968 11.676 491.524 10.053C488.065 8.44102 484.014 8.82302 480.937 11.058C459.044 26.966 437.248 30.431 424.146 30.818C403.809 11.476 377.442 0.874023 349.406 0.874023C289.135 0.874023 240.099 50.558 240.099 111.625C240.099 116.569 240.426 121.503 241.068 126.396C138.176 124.645 54.665 26.155 53.803 25.119C51.619 22.502 48.303 21.078 44.874 21.405C41.476 21.701 38.43 23.64 36.726 26.594C7.72101 76.916 25.44 121.319 43.231 147.921C41.394 146.829 39.889 145.824 38.859 145.064C35.716 142.727 31.522 142.339 28.007 144.069C24.486 145.804 22.236 149.355 22.17 153.278C21.384 201.533 43.934 229.768 65.844 245.768C63.472 246.095 61.247 247.227 59.578 249.044C57.068 251.768 56.185 255.62 57.267 259.166C72.461 308.901 109.308 326.518 133.64 332.753C84.42 369.891 13.083 357.769 12.292 357.62C7.562 356.789 2.828 359.283 0.884004 363.702C-1.055 368.115 0.272004 373.289 4.109 376.212C56.573 416.253 119.319 425.125 164.639 425.125C198.911 425.125 223.212 420.048 225.549 419.543C454.166 365.364 461.413 156.48 460.943 120.883C503.831 80.954 510.576 65.628 511.627 61.816C512.811 57.502 511.117 52.91 507.413 50.394ZM443.283 108.752C440.953 110.895 439.723 113.987 439.937 117.15C439.973 117.711 443.473 174.329 418.243 237.416C384.534 321.707 318.079 376.141 220.936 399.162C219.895 399.381 130.031 417.993 51.144 380.473C84.869 379.059 131.573 369.56 164.436 332.667C167.181 329.59 167.834 324.834 166.145 321.074C164.456 317.324 160.706 314.564 156.594 314.564C156.574 314.564 156.553 314.564 156.523 314.564C153.763 314.564 106.186 314.207 83.39 268.258C92.609 268.656 103.63 268.113 112.512 264.021C116.604 262.133 119.022 257.921 118.517 253.447C118.012 248.972 114.696 245.368 110.287 244.439C107.731 243.898 52.638 231.603 44.144 171.746C52.608 175.272 63.159 178.003 73.654 176.431C77.685 175.829 80.986 172.931 82.128 169.018C83.266 165.11 82.021 160.888 78.944 158.209C76.561 156.139 24.617 109.936 48.403 50.236C76.561 79.568 156.863 152.604 254.236 147.022C257.343 146.843 260.211 145.282 262.056 142.772C263.899 140.262 264.527 137.063 263.766 134.044C261.929 126.728 260.996 119.187 260.996 111.626C260.996 62.08 300.654 21.773 349.405 21.773C373.247 21.773 395.608 31.288 412.375 48.569C414.298 50.554 416.931 51.691 419.697 51.743C429.355 51.835 445.258 50.794 463.228 44.11C457.869 50.385 450.376 57.732 439.896 65.962C436.274 68.809 434.942 73.697 436.62 77.988C438.304 82.289 442.676 85.008 447.186 84.595C449.298 84.427 459.538 83.524 471.538 81.09C464.662 88.4 455.494 97.523 443.283 108.752Z" fill="black"/>
</svg>
