<svg width="22" height="20" viewBox="0 0 22 20" fill="none" xmlns="http://www.w3.org/2000/svg">
<path id="Star" d="M10.2142 0.859824C10.514 -0.0604526 11.816 -0.0604517 12.1158 0.859825L13.8669 6.23422C14.001 6.64585 14.3848 6.92443 14.8177 6.92443H20.4785C21.4478 6.92443 21.8502 8.16546 21.0652 8.73422L16.4903 12.0489C16.1388 12.3035 15.9918 12.7558 16.1262 13.1684L17.8748 18.5351C18.1748 19.4559 17.1215 20.2229 16.3373 19.6547L11.7517 16.3323C11.4017 16.0787 10.9283 16.0787 10.5783 16.3323L5.99273 19.6547C5.20847 20.2229 4.15518 19.4559 4.4552 18.5351L6.20377 13.1684C6.33823 12.7558 6.19115 12.3035 5.83969 12.0489L1.26482 8.73422C0.479809 8.16546 0.882139 6.92443 1.85153 6.92443H7.51229C7.94522 6.92443 8.32898 6.64585 8.46309 6.23422L10.2142 0.859824Z" fill="#070707"/>
</svg>
