<svg width="0" height="0" class="hidden">
  <symbol xmlns="http://www.w3.org/2000/svg" viewBox="0 0 50 50" id="linkedin">
    <path d="M18.3723 37H13.3965V20.9764H18.3723V37ZM15.8817 18.7907C14.2906 18.7907 13.0001 17.4728 13.0001 15.8817C13.0001 15.1174 13.3037 14.3844 13.8441 13.844C14.3845 13.3036 15.1175 13 15.8817 13C16.646 13 17.379 13.3036 17.9194 13.844C18.4598 14.3844 18.7634 15.1174 18.7634 15.8817C18.7634 17.4728 17.4723 18.7907 15.8817 18.7907ZM36.9952 37H32.0301V29.1998C32.0301 27.3409 31.9926 24.9569 29.4431 24.9569C26.8561 24.9569 26.4597 26.9766 26.4597 29.0659V37H21.4892V20.9764H26.2614V23.1622H26.3311C26.9954 21.9032 28.6181 20.5746 31.039 20.5746C36.0749 20.5746 37.0006 23.8908 37.0006 28.198V37H36.9952Z"></path>
  </symbol>
  <symbol  xmlns="http://www.w3.org/2000/svg" viewBox="0 0 50 50" id="instagram">
   
    <path d="M25.0027 18.8467C21.5967 18.8467 18.8494 21.594 18.8494 25C18.8494 28.406 21.5967 31.1533 25.0027 31.1533C28.4087 31.1533 31.156 28.406 31.156 25C31.156 21.594 28.4087 18.8467 25.0027 18.8467ZM25.0027 29.0004C22.8016 29.0004 21.0022 27.2064 21.0022 25C21.0022 22.7936 22.7963 20.9996 25.0027 20.9996C27.2091 20.9996 29.0031 22.7936 29.0031 25C29.0031 27.2064 27.2037 29.0004 25.0027 29.0004V29.0004ZM32.8429 18.595C32.8429 19.3929 32.2003 20.0302 31.4077 20.0302C30.6097 20.0302 29.9724 19.3876 29.9724 18.595C29.9724 17.8024 30.6151 17.1598 31.4077 17.1598C32.2003 17.1598 32.8429 17.8024 32.8429 18.595ZM36.9183 20.0517C36.8273 18.1291 36.3881 16.4261 34.9797 15.023C33.5766 13.6199 31.8736 13.1807 29.951 13.0843C27.9695 12.9719 22.0305 12.9719 20.049 13.0843C18.1318 13.1754 16.4288 13.6145 15.0203 15.0176C13.6118 16.4207 13.1781 18.1237 13.0817 20.0463C12.9692 22.0278 12.9692 27.9669 13.0817 29.9483C13.1727 31.8709 13.6118 33.5739 15.0203 34.977C16.4288 36.3801 18.1264 36.8193 20.049 36.9157C22.0305 37.0281 27.9695 37.0281 29.951 36.9157C31.8736 36.8246 33.5766 36.3855 34.9797 34.977C36.3828 33.5739 36.8219 31.8709 36.9183 29.9483C37.0308 27.9669 37.0308 22.0331 36.9183 20.0517V20.0517ZM34.3585 32.0744C33.9407 33.1241 33.1321 33.9327 32.0771 34.3558C30.4973 34.9824 26.7485 34.8378 25.0027 34.8378C23.2568 34.8378 19.5027 34.977 17.9283 34.3558C16.8786 33.9381 16.0699 33.1294 15.6469 32.0744C15.0203 30.4946 15.1649 26.7458 15.1649 25C15.1649 23.2542 15.0257 19.5001 15.6469 17.9256C16.0646 16.8759 16.8732 16.0673 17.9283 15.6442C19.5081 15.0176 23.2568 15.1622 25.0027 15.1622C26.7485 15.1622 30.5026 15.023 32.0771 15.6442C33.1267 16.0619 33.9354 16.8706 34.3585 17.9256C34.985 19.5054 34.8404 23.2542 34.8404 25C34.8404 26.7458 34.985 30.4999 34.3585 32.0744Z"></path>
  </symbol>
  <symbol  xmlns="http://www.w3.org/2000/svg" viewBox="0 0 50 50" id="twitter">
   <path d="M36.7375 18.9812C36.7563 19.2437 36.7563 19.5063 36.7563 19.7687C36.7563 27.775 30.6626 37 19.525 37C16.0938 37 12.9063 36.0062 10.225 34.2813C10.7126 34.3375 11.1813 34.3563 11.6875 34.3563C14.5187 34.3563 17.125 33.4 19.2063 31.7688C16.5438 31.7125 14.3125 29.9688 13.5438 27.5687C13.9188 27.625 14.2938 27.6625 14.6876 27.6625C15.2313 27.6625 15.7751 27.5874 16.2813 27.4563C13.5063 26.8937 11.425 24.4562 11.425 21.5125V21.4375C12.2312 21.8875 13.1688 22.1688 14.1625 22.2062C12.5312 21.1187 11.4625 19.2625 11.4625 17.1625C11.4625 16.0375 11.7624 15.0062 12.2875 14.1062C15.2687 17.7812 19.75 20.1812 24.775 20.4437C24.6812 19.9937 24.625 19.525 24.625 19.0563C24.625 15.7187 27.325 13 30.6812 13C32.425 13 33.9999 13.7312 35.1062 14.9125C36.4749 14.65 37.7874 14.1437 38.95 13.45C38.4999 14.8563 37.5437 16.0375 36.2875 16.7875C37.5062 16.6563 38.6875 16.3187 39.775 15.85C38.9501 17.05 37.9188 18.1187 36.7375 18.9812V18.9812Z" ></path>
  </symbol>
  <symbol  xmlns="http://www.w3.org/2000/svg" viewBox="0 0 50 50" id="facebook">
   
   <path d="M30.5847 26.5L31.2512 22.1566H27.0836V19.338C27.0836 18.1497 27.6658 16.9914 29.5323 16.9914H31.427V13.2934C31.427 13.2934 29.7077 13 28.0637 13C24.6316 13 22.3881 15.0803 22.3881 18.8463V22.1566H18.573V26.5H22.3881V37H27.0836V26.5H30.5847Z"/>
  </symbol>

  <symbol  xmlns="http://www.w3.org/2000/svg" viewBox="0 0 24 12" id="arrow">

    <path d="M23.5303 6.53033C23.8232 6.23744 23.8232 5.76257 23.5303 5.46967L18.7574 0.696701C18.4645 0.403807 17.9896 0.403807 17.6967 0.696701C17.4038 0.989594 17.4038 1.46447 17.6967 1.75736L21.9393 6L17.6967 10.2426C17.4038 10.5355 17.4038 11.0104 17.6967 11.3033C17.9896 11.5962 18.4645 11.5962 18.7574 11.3033L23.5303 6.53033ZM-6.55671e-08 6.75L23 6.75L23 5.25L6.55671e-08 5.25L-6.55671e-08 6.75Z"/>
  </symbol>

  <symbol  xmlns="http://www.w3.org/2000/svg" viewBox="0 0 18 16" id="search">
   
    <path fill-rule="evenodd" clip-rule="evenodd" d="M13.8942 11.0715L17.6712 14.6313C17.8399 14.8079 17.8316 15.0783 17.6524 15.2454L16.9914 15.8684C16.9027 15.9526 16.7821 16 16.6562 16C16.5303 16 16.4096 15.9526 16.3209 15.8684L12.5439 12.3085C12.4394 12.21 12.3446 12.1028 12.2606 11.9881L11.5524 11.0982C10.3806 11.9801 8.92549 12.4602 7.42595 12.4598C4.33594 12.4699 1.65084 10.461 0.960303 7.62231C0.269767 4.78365 1.75809 1.87288 4.54414 0.613257C7.3302 -0.646363 10.6704 0.0813446 12.5873 2.36555C14.5042 4.64977 14.4862 7.88086 12.5439 10.1459L13.4881 10.76C13.6356 10.849 13.7718 10.9535 13.8942 11.0715ZM2.70508 6.23017C2.70508 8.68773 4.81889 10.68 7.42641 10.68C8.67859 10.68 9.87948 10.2112 10.7649 9.37666C11.6503 8.54216 12.1477 7.41034 12.1477 6.23017C12.1477 3.77262 10.0339 1.78037 7.42641 1.78037C4.81889 1.78037 2.70508 3.77262 2.70508 6.23017Z" />
</symbol>

 <symbol  xmlns="http://www.w3.org/2000/svg" viewBox="0 0 145 14" id="logo">
   
    <path d="M6.274 8.08187C6.37194 8.26951 6.46124 8.46594 6.5419 8.67118C6.62832 8.87055 6.71186 9.07285 6.79251 9.27808C6.87317 9.06698 6.95671 8.85882 7.04313 8.65359C7.12955 8.44835 7.22173 8.25192 7.31967 8.06428L11.0184 1.01894C11.0645 0.930987 11.1106 0.860622 11.1567 0.807848C11.2085 0.755074 11.2632 0.716959 11.3209 0.693504C11.3842 0.670049 11.4534 0.655389 11.5283 0.649526C11.6032 0.643662 11.6925 0.64073 11.7962 0.64073H13.5505V13.3593H11.5023V5.14411C11.5023 4.99166 11.5052 4.82454 11.511 4.64276C11.5225 4.46098 11.5369 4.27627 11.5542 4.08863L7.77769 11.3011C7.69127 11.4653 7.57892 11.5943 7.44065 11.6881C7.30238 11.776 7.14107 11.82 6.95671 11.82H6.63696C6.4526 11.82 6.29128 11.776 6.15301 11.6881C6.01474 11.5943 5.9024 11.4653 5.81598 11.3011L1.98763 4.06225C2.01068 4.25575 2.02508 4.44632 2.03084 4.63396C2.04236 4.81574 2.04812 4.98579 2.04812 5.14411V13.3593H0V0.64073H1.7543C1.858 0.64073 1.9473 0.643662 2.0222 0.649526C2.09709 0.655389 2.16335 0.670049 2.22096 0.693504C2.28434 0.716959 2.34195 0.755074 2.3938 0.807848C2.44565 0.860622 2.49462 0.930987 2.54071 1.01894L6.274 8.08187Z" />
    <path d="M35.6942 13.3593H33.8967C33.695 13.3593 33.528 13.3094 33.3954 13.2097C33.2687 13.1042 33.1765 12.9752 33.1189 12.8227L32.1856 10.228H27.0091L26.0758 12.8227C26.0297 12.9576 25.9375 13.0807 25.7992 13.1922C25.6667 13.3036 25.5025 13.3593 25.3066 13.3593H23.5005L28.4091 0.64073H30.7856L35.6942 13.3593ZM27.6054 8.55683H31.5893L30.0683 4.32612C29.9992 4.13848 29.9214 3.91858 29.835 3.66644C29.7543 3.40843 29.6737 3.12991 29.593 2.83085C29.5124 3.12991 29.4317 3.40843 29.351 3.66644C29.2761 3.92445 29.2013 4.1502 29.1264 4.34371L27.6054 8.55683Z" />
    <path d="M46.8415 0.64073C46.9452 0.64073 47.0316 0.646594 47.1008 0.658321C47.1699 0.664185 47.2304 0.681777 47.2823 0.711095C47.3399 0.734551 47.3946 0.772666 47.4465 0.825439C47.4983 0.87235 47.5559 0.936851 47.6193 1.01894L54.1785 9.52436C54.1554 9.31912 54.1381 9.11976 54.1266 8.92625C54.1209 8.72688 54.118 8.54217 54.118 8.37212V0.64073H56.1661V13.3593H54.9649C54.7805 13.3593 54.6279 13.33 54.5069 13.2713C54.3859 13.2127 54.2678 13.1071 54.1525 12.9547L47.6193 4.48444C47.6366 4.67208 47.6481 4.85972 47.6539 5.04736C47.6654 5.22914 47.6711 5.39626 47.6711 5.54871V13.3593H45.623V0.64073H46.8415Z" />
    <path d="M69.9475 13.3593H67.6142V0.64073H69.9475V13.3593Z" />
    <path d="M89.2872 0.64073V2.523H83.7477V6.28755H88.423V8.17862H83.7477V13.3593H81.4058V0.64073H89.2872Z" />
    <path d="M107.634 0.64073V2.523H102.095V6.05007H106.459V7.87077H102.095V11.4682H107.634V13.3593H99.7529V0.64073H107.634Z"/>
    <path d="M124.983 2.95399C124.92 3.08299 124.845 3.17388 124.758 3.22666C124.678 3.27943 124.58 3.30582 124.465 3.30582C124.349 3.30582 124.22 3.26184 124.076 3.17388C123.932 3.08006 123.762 2.97745 123.566 2.86603C123.37 2.75462 123.14 2.65494 122.874 2.56698C122.615 2.47316 122.307 2.42625 121.95 2.42625C121.627 2.42625 121.345 2.4673 121.103 2.54939C120.867 2.62562 120.665 2.7341 120.498 2.87483C120.337 3.01556 120.216 3.18561 120.135 3.38498C120.054 3.57848 120.014 3.79251 120.014 4.02706C120.014 4.32612 120.095 4.57533 120.256 4.77469C120.423 4.97406 120.642 5.14411 120.913 5.28484C121.184 5.42557 121.492 5.55165 121.837 5.66306C122.183 5.77447 122.535 5.89468 122.892 6.02368C123.255 6.14682 123.609 6.29341 123.955 6.46346C124.3 6.62765 124.609 6.83875 124.879 7.09675C125.15 7.34889 125.366 7.65967 125.528 8.02909C125.695 8.39851 125.778 8.84709 125.778 9.37483C125.778 9.94948 125.68 10.4889 125.484 10.9932C125.294 11.4917 125.012 11.9285 124.637 12.3038C124.269 12.6732 123.816 12.9664 123.281 13.1834C122.745 13.3945 122.131 13.5 121.44 13.5C121.042 13.5 120.651 13.459 120.265 13.3769C119.879 13.3006 119.507 13.1892 119.15 13.0426C118.798 12.896 118.467 12.7201 118.156 12.5149C117.851 12.3097 117.577 12.081 117.335 11.8288L118.009 10.6942C118.072 10.6121 118.147 10.5447 118.234 10.4919C118.326 10.4332 118.427 10.4039 118.536 10.4039C118.68 10.4039 118.836 10.4655 119.003 10.5886C119.17 10.7059 119.366 10.8378 119.591 10.9844C119.821 11.131 120.089 11.2659 120.394 11.389C120.705 11.5063 121.077 11.565 121.509 11.565C122.172 11.565 122.684 11.4066 123.047 11.09C123.41 10.7675 123.592 10.3072 123.592 9.70907C123.592 9.37483 123.508 9.10216 123.341 8.89107C123.18 8.67997 122.964 8.50406 122.693 8.36333C122.422 8.21673 122.114 8.09359 121.768 7.99391C121.423 7.89423 121.071 7.78575 120.714 7.66847C120.357 7.55119 120.005 7.41046 119.66 7.24628C119.314 7.08209 119.006 6.86806 118.735 6.60419C118.464 6.34032 118.245 6.01195 118.078 5.61908C117.917 5.22034 117.836 4.73072 117.836 4.1502C117.836 3.68696 117.926 3.23545 118.104 2.79567C118.289 2.35589 118.554 1.96594 118.899 1.62584C119.251 1.28575 119.68 1.01308 120.187 0.807848C120.694 0.602616 121.273 0.5 121.924 0.5C122.661 0.5 123.341 0.617275 123.963 0.851826C124.586 1.08638 125.116 1.41475 125.553 1.83694L124.983 2.95399Z" />
    <path d="M145 0.64073V2.58457H141.241V13.3593H138.916V2.58457H135.14V0.64073H145Z" />
</symbol>



</svg>


