<svg width="24" height="20" viewBox="0 0 24 20" fill="none" xmlns="http://www.w3.org/2000/svg">
<path d="M1.80257 1.79652C2.95849 0.645941 4.52305 0 6.15399 0C7.78494 0 9.3495 0.645941 10.5054 1.79652L12.0142 3.30022L13.5141 1.80546C14.6676 0.656135 16.2295 0.0107966 17.8579 0.0107966C19.4862 0.0107966 21.0481 0.656135 22.2016 1.80546C22.7716 2.37299 23.2239 3.04751 23.5325 3.79031C23.8411 4.5331 24 5.32953 24 6.13389C24 6.93824 23.8411 7.73467 23.5325 8.47746C23.2239 9.22026 22.7716 9.89478 22.2016 10.4623L20.7017 11.9583L13.3352 19.3018C12.9803 19.6547 12.5001 19.8528 11.9995 19.8528C11.499 19.8528 11.0188 19.6547 10.6638 19.3018L3.31267 11.9762L1.80257 10.4713C1.23127 9.90262 0.777924 9.22673 0.468583 8.4824C0.159242 7.73806 0 6.93994 0 6.13389C0 5.32783 0.159242 4.52971 0.468583 3.78537C0.777924 3.04104 1.23127 2.36515 1.80257 1.79652Z" fill="url(#paint0_linear_306_886)"/>
<defs>
<linearGradient id="paint0_linear_306_886" x1="-0.245153" y1="2.04367" x2="14.8308" y2="23.9603" gradientUnits="userSpaceOnUse">
<stop offset="0.00485931" stop-color="#B48C5A"/>
<stop offset="0.492101" stop-color="#DEAC6F"/>
<stop offset="1" stop-color="#785D3C"/>
</linearGradient>
</defs>
</svg>
