<svg width="24" height="25" viewBox="0 0 24 25" fill="none" xmlns="http://www.w3.org/2000/svg">
<path d="M23.4649 13.7895C23.6279 13.6936 23.7629 13.5567 23.8568 13.3926C23.9506 13.2284 24 13.0426 24 12.8536C24 12.6645 23.9506 12.4787 23.8568 12.3145C23.7629 12.1504 23.6279 12.0136 23.4649 11.9176C19.1175 9.35819 15.4938 5.73354 12.9354 1.38555C12.8391 1.22321 12.7023 1.08873 12.5383 0.995312C12.3743 0.901899 12.1888 0.852776 12.0001 0.852776C11.8114 0.852776 11.6259 0.901899 11.4619 0.995312C11.2979 1.08873 11.1611 1.22321 11.0648 1.38555C8.49012 5.72133 4.86947 9.34241 0.534002 11.9176C0.371352 12.0136 0.236549 12.1504 0.142901 12.3144C0.0492537 12.4784 0 12.6641 0 12.8529C0 13.0418 0.0492537 13.2274 0.142901 13.3914C0.236549 13.5554 0.371352 13.6922 0.534002 13.7882C4.88309 16.3446 8.50809 19.9683 11.0661 24.3165C11.162 24.4794 11.2988 24.6145 11.463 24.7083C11.6271 24.8022 11.8129 24.8515 12.002 24.8515C12.1911 24.8515 12.3769 24.8022 12.5411 24.7083C12.7052 24.6145 12.842 24.4794 12.9379 24.3165C15.5009 19.9754 19.1216 16.3542 23.4624 13.7908L23.4649 13.7895Z" fill="url(#paint0_linear_306_887)"/>
<defs>
<linearGradient id="paint0_linear_306_887" x1="-0.245153" y1="3.32324" x2="18.9423" y2="26.3981" gradientUnits="userSpaceOnUse">
<stop offset="0.00485931" stop-color="#B48C5A"/>
<stop offset="0.492101" stop-color="#DEAC6F"/>
<stop offset="1" stop-color="#785D3C"/>
</linearGradient>
</defs>
</svg>
