<svg width="10" height="10" class="hidden">
    <symbol xmlns="http://www.w3.org/2000/svg" viewBox="0 0 10 10" id="spades">
        <path fill-rule="evenodd" clip-rule="evenodd" d="M4.5173 7.44015C4.10301 7.76401 3.56097 8.05795 2.95895 8.05795C1.44541 8.05795 0.388729 7.00296 0.388306 5.49281C0.388306 3.82783 1.70133 2.75211 2.97122 1.71193L2.97994 1.70477C3.57664 1.21546 4.19349 0.709618 4.66749 0.1489C4.74787 0.0545685 4.86504 0 4.98814 0H5.01267C5.13577 0 5.25294 0.0545685 5.33289 0.1489C5.80444 0.708052 6.41845 1.21155 7.01277 1.6989L7.02917 1.71235C8.29863 2.75254 9.61123 3.82868 9.61123 5.49323C9.61123 7.00296 8.5537 8.05795 7.04101 8.05795C6.44013 8.05795 5.89999 7.76512 5.48649 7.44198C5.74565 8.32031 6.10745 9.30473 6.56977 10C5.53128 9.82022 4.47671 9.81218 3.43018 10C3.8964 9.30424 4.25877 8.31894 4.5173 7.44015Z" />
    </symbol>

 <symbol xmlns="http://www.w3.org/2000/svg" viewBox="0 0 10 10" id="x">
    <path fill-rule="evenodd" clip-rule="evenodd" d="M7.18332 3.75979C7.23648 3.75623 7.28964 3.75267 7.34375 3.75267C8.81077 3.75267 10 4.87149 10 6.2516C10 7.63171 8.81077 8.75053 7.34375 8.75053C6.87103 8.75601 6.40526 8.63647 5.99366 8.40402C5.7541 8.26873 5.53784 8.09799 5.35174 7.89855L6.09375 10H3.90625L4.64826 7.89854C4.46216 8.09799 4.2459 8.26873 4.00634 8.40402C3.59473 8.63647 3.12897 8.75601 2.65625 8.75053C1.18923 8.75053 0 7.63171 0 6.2516C0 4.87149 1.18923 3.75267 2.65625 3.75267C2.71036 3.75267 2.76352 3.75623 2.81668 3.75979C2.8253 3.76037 2.83393 3.76095 2.84256 3.76151C2.62019 3.38185 2.50203 2.95024 2.50003 2.51031C2.49802 2.07037 2.61225 1.6377 2.83115 1.25604C3.05006 0.874374 3.36589 0.557239 3.74672 0.336692C4.12754 0.116144 4.55987 0 5 0C5.44013 0 5.87246 0.116144 6.25328 0.336692C6.63411 0.557239 6.94994 0.874374 7.16885 1.25604C7.38775 1.6377 7.50198 2.07037 7.49997 2.51031C7.49797 2.95024 7.37981 3.38185 7.15744 3.76151C7.16607 3.76095 7.17469 3.76037 7.18332 3.75979Z" />
</symbol>

  <symbol xmlns="http://www.w3.org/2000/svg" viewBox="0 0 10 10" id="romb">
   <path d="M9.77705 6.29563C9.84494 6.25566 9.90123 6.19866 9.94033 6.13026C9.97943 6.06186 10 5.98445 10 5.90566C10 5.82688 9.97943 5.74946 9.94033 5.68106C9.90123 5.61266 9.84494 5.55566 9.77705 5.5157C7.96564 4.44926 6.45574 2.93899 5.38974 1.12732C5.34963 1.05968 5.29261 1.00365 5.22429 0.964725C5.15596 0.925803 5.07868 0.905334 5.00004 0.905334C4.92141 0.905334 4.84412 0.925803 4.7758 0.964725C4.70747 1.00365 4.65045 1.05968 4.61034 1.12732C3.53755 2.9339 2.02895 4.44268 0.222501 5.5157C0.15473 5.5557 0.0985619 5.61268 0.0595421 5.68102C0.0205224 5.74936 0 5.8267 0 5.90539C0 5.98409 0.0205224 6.06143 0.0595421 6.12977C0.0985619 6.19811 0.15473 6.25509 0.222501 6.29509C2.03462 7.36027 3.54504 8.87014 4.61087 10.6819C4.65084 10.7498 4.70784 10.806 4.77624 10.8451C4.84464 10.8843 4.92205 10.9048 5.00084 10.9048C5.07962 10.9048 5.15704 10.8843 5.22544 10.8451C5.29383 10.806 5.35084 10.7498 5.3908 10.6819C6.4587 8.8731 7.96734 7.36427 9.77598 6.29616L9.77705 6.29563Z" />
</symbol>

  <symbol xmlns="http://www.w3.org/2000/svg" viewBox="0 0 10 10" id="heart">
   <path d="M0.751073 0.801109C1.2327 0.321701 1.8846 0.0525589 2.56416 0.0525589C3.24372 0.0525589 3.89562 0.321701 4.37726 0.801109L5.00593 1.42765L5.63088 0.804835C6.11149 0.325949 6.7623 0.0570575 7.44077 0.0570575C8.11924 0.0570575 8.77006 0.325949 9.25067 0.804835C9.48817 1.04131 9.67662 1.32236 9.80521 1.63185C9.9338 1.94135 10 2.2732 10 2.60834C10 2.94349 9.9338 3.27534 9.80521 3.58484C9.67662 3.89433 9.48817 4.17538 9.25067 4.41185L8.62572 5.0352L5.55635 8.095C5.40844 8.24202 5.20836 8.32455 4.99981 8.32455C4.79125 8.32455 4.59117 8.24202 4.44326 8.095L1.38028 5.04266L0.751073 4.41558C0.513027 4.17865 0.324135 3.89703 0.195243 3.58689C0.066351 3.27675 0 2.9442 0 2.60834C0 2.27249 0.066351 1.93994 0.195243 1.6298C0.324135 1.31966 0.513027 1.03804 0.751073 0.801109Z" />
</symbol>
</svg>



