<svg width="24" height="24" viewBox="0 0 24 24" fill="none" xmlns="http://www.w3.org/2000/svg">
<g clip-path="url(#clip0_306_811)">
<path fill-rule="evenodd" clip-rule="evenodd" d="M10.8416 17.8563C9.84733 18.6336 8.54642 19.3391 7.10155 19.3391C3.46906 19.3391 0.933022 16.8071 0.932007 13.1827C0.932007 9.1868 4.08328 6.60508 7.13099 4.10863L7.15194 4.09145C8.58401 2.9171 10.0645 1.70308 11.2021 0.35736C11.395 0.130964 11.6762 0 11.9716 0H12.0305C12.3259 0 12.6071 0.130964 12.799 0.35736C13.9307 1.69933 15.4044 2.90772 16.8307 4.07737L16.8701 4.10964C19.9168 6.60609 23.067 9.18883 23.067 13.1838C23.067 16.8071 20.529 19.3391 16.8985 19.3391C15.4564 19.3391 14.1601 18.6363 13.1677 17.8608C13.7897 19.9688 14.658 22.3314 15.7676 24C13.2752 23.5685 10.7442 23.5492 8.23253 24C9.35147 22.3302 10.2212 19.9654 10.8416 17.8563Z" fill="url(#paint0_linear_306_811)"/>
</g>
<defs>
<linearGradient id="paint0_linear_306_811" x1="0.705904" y1="2.47059" x2="20.1177" y2="24" gradientUnits="userSpaceOnUse">
<stop offset="0.00485931" stop-color="#B48C5A"/>
<stop offset="0.492101" stop-color="#DEAC6F"/>
<stop offset="1" stop-color="#785D3C"/>
</linearGradient>
<clipPath id="clip0_306_811">
<rect width="24" height="24" fill="white"/>
</clipPath>
</defs>
</svg>
