<svg width="24" height="25" viewBox="0 0 24 25" fill="none" xmlns="http://www.w3.org/2000/svg">
<path fill-rule="evenodd" clip-rule="evenodd" d="M17.24 9.97094C17.3675 9.96239 17.4951 9.95385 17.625 9.95385C21.1458 9.95385 24 12.639 24 15.9513C24 19.2636 21.1458 21.9487 17.625 21.9487C16.4905 21.9619 15.3726 21.675 14.3848 21.1171C13.8098 20.7924 13.2908 20.3826 12.8442 19.904L14.625 24.9474H9.375L11.1558 19.904C10.7092 20.3826 10.1902 20.7924 9.6152 21.1171C8.62736 21.675 7.50952 21.9619 6.375 21.9487C2.85416 21.9487 0 19.2636 0 15.9513C0 12.639 2.85416 9.95385 6.375 9.95385C6.50487 9.95385 6.63246 9.96239 6.76004 9.97094C6.78074 9.97233 6.80144 9.97371 6.82215 9.97506C6.28845 9.06389 6.00487 8.02802 6.00006 6.97218C5.99525 5.91633 6.26939 4.87793 6.79477 3.96193C7.32014 3.04594 8.07813 2.28482 8.99212 1.7555C9.90611 1.22619 10.9437 0.947441 12 0.947441C13.0563 0.947441 14.0939 1.22619 15.0079 1.7555C15.9219 2.28482 16.6799 3.04594 17.2052 3.96193C17.7306 4.87793 18.0047 5.91633 17.9999 6.97218C17.9951 8.02802 17.7115 9.06389 17.1778 9.97506C17.1986 9.97371 17.2193 9.97233 17.24 9.97094Z" fill="url(#paint0_linear_306_882)"/>
<defs>
<linearGradient id="paint0_linear_306_882" x1="-0.245153" y1="3.41803" x2="18.9435" y2="26.4931" gradientUnits="userSpaceOnUse">
<stop offset="0.00485931" stop-color="#B48C5A"/>
<stop offset="0.492101" stop-color="#DEAC6F"/>
<stop offset="1" stop-color="#785D3C"/>
</linearGradient>
</defs>
</svg>
