<svg width="200" height="62" viewBox="0 0 200 62" fill="none" xmlns="http://www.w3.org/2000/svg">
<path d="M79.6973 47.8255V42.8288C80.3033 43.3387 80.9094 43.7466 81.7175 44.1545C82.5255 44.5624 83.3336 44.8683 84.2427 45.1742C85.1518 45.4802 85.9599 45.6841 86.869 45.7861C87.7781 45.888 88.5862 45.99 89.2932 45.99C91.8185 45.99 93.7377 45.4802 95.0508 44.5624C96.3639 43.6446 96.97 42.217 96.97 40.3815C96.97 39.3617 96.768 38.5459 96.3639 37.8321C95.9599 37.1183 95.3538 36.4045 94.6468 35.8946C93.9397 35.2828 93.0306 34.7729 92.0205 34.1611C91.0104 33.6512 89.8993 33.0394 88.7882 32.4275C87.5761 31.8157 86.3639 31.1019 85.3538 30.49C84.2427 29.8782 83.3336 29.1644 82.5256 28.3486C81.7175 27.5328 81.1114 26.717 80.6064 25.6973C80.1013 24.6775 79.8993 23.5558 79.8993 22.2301C79.8993 20.5986 80.3033 19.1709 81.0104 17.9473C81.7175 16.7236 82.6266 15.7038 83.8387 14.99C84.9498 14.1742 86.2629 13.6644 87.7781 13.2565C89.2932 12.8486 90.8084 12.6446 92.3235 12.6446C95.8589 12.6446 98.3841 13.0525 100 13.9703V18.763C97.8791 17.3354 95.2528 16.5196 91.9195 16.5196C91.0104 16.5196 90.1013 16.6216 89.1922 16.8255C88.2831 17.0295 87.475 17.3354 86.768 17.7433C86.0609 18.1512 85.4548 18.763 85.0508 19.4769C84.6468 20.1907 84.3437 21.0065 84.3437 22.0262C84.3437 22.944 84.5458 23.7598 84.8488 24.3716C85.1518 25.0854 85.6569 25.6973 86.3639 26.2071C87.071 26.717 87.8791 27.3288 88.7882 27.8387C89.6973 28.3486 90.8084 28.9604 92.0205 29.5723C93.3336 30.1841 94.5458 30.8979 95.6569 31.6117C96.768 32.3255 97.7781 33.1413 98.6872 33.9571C99.5963 34.7729 100.202 35.7927 100.707 36.8124C101.212 37.8321 101.414 39.0558 101.414 40.3815C101.414 42.115 101.111 43.6446 100.404 44.8683C99.6973 46.092 98.7882 47.1117 97.6771 47.8255C96.465 48.6413 95.1518 49.1512 93.6367 49.4571C92.1215 49.7631 90.5054 49.967 88.7882 49.967C88.1821 49.967 87.5761 49.967 86.667 49.865C85.8589 49.7631 84.9498 49.6611 84.1417 49.4571C83.3336 49.2532 82.4245 49.0492 81.7175 48.8453C80.7074 48.4374 80.1013 48.1315 79.6973 47.8255Z" fill="white"/>
<path d="M125.858 49.2532H120.101L108.989 36.9144H108.888V49.2532H104.747V11.1151H108.888V35.2828H108.989L119.596 23.4539H124.949L113.131 35.8947L125.858 49.2532Z" fill="white"/>
<path d="M149.798 23.454L138.182 53.3323C136.06 58.6349 133.131 61.2862 129.394 61.2862C128.384 61.2862 127.475 61.1842 126.768 60.9803V57.3092C127.677 57.6151 128.485 57.7171 129.192 57.7171C131.212 57.7171 132.727 56.4934 133.838 54.0461L135.858 49.1513L125.959 23.454H130.505L137.374 43.2369C137.475 43.4408 137.677 44.1546 137.879 45.1744H137.98C138.081 44.7665 138.182 44.1546 138.485 43.2369L145.656 23.352H149.798V23.454Z" fill="white"/>
<path d="M156.161 35.1809V38.75C156.161 40.8914 156.869 42.7269 158.182 44.1546C159.596 45.6842 161.313 46.398 163.333 46.398C165.757 46.398 167.677 45.4802 169.091 43.5427C170.505 41.6052 171.212 38.9539 171.212 35.5888C171.212 32.7335 170.606 30.4901 169.293 28.8585C167.98 27.2269 166.263 26.4111 164.04 26.4111C161.717 26.4111 159.798 27.2269 158.384 28.9605C156.869 30.4901 156.161 32.6315 156.161 35.1809ZM156.263 45.4802L156.161 61.0822H152.121V23.4539H156.161V27.9407H156.263C158.283 24.4736 161.212 22.8421 165.05 22.8421C168.283 22.8421 170.909 23.9638 172.727 26.3092C174.545 28.6546 175.454 31.7138 175.454 35.5888C175.454 39.8717 174.444 43.3388 172.323 45.8881C170.303 48.4375 167.475 49.7631 163.838 49.7631C160.606 49.8651 157.98 48.4375 156.263 45.4802Z" fill="white"/>
<path d="M195.859 33.9572C195.859 31.6118 195.253 29.6743 194.142 28.3486C193.03 27.023 191.515 26.4111 189.495 26.4111C187.576 26.4111 185.96 27.125 184.647 28.4506C183.333 29.8783 182.525 31.6118 182.121 33.9572H195.859ZM200 37.4243H182.121C182.222 40.2796 182.929 42.523 184.445 44.0526C185.859 45.5822 187.879 46.398 190.404 46.398C193.232 46.398 195.859 45.4802 198.283 43.5427V47.4177C196.061 49.0493 193.131 49.8651 189.394 49.8651C185.859 49.8651 183.03 48.7434 180.909 46.398C178.889 44.0526 177.879 40.7894 177.879 36.5065C177.879 32.5296 178.99 29.2664 181.212 26.7171C183.434 24.1677 186.263 22.944 189.596 22.944C192.929 22.944 195.455 24.0657 197.273 26.2072C199.091 28.3486 200 31.4079 200 35.2829V37.4243V37.4243Z" fill="white"/>
<path d="M30.6061 49.7632C20.404 49.7632 15.7576 44.5625 15.7576 40.6875C15.7576 38.75 17.2727 37.3224 19.2929 37.3224C23.6364 37.3224 22.5252 43.9507 30.7071 43.9507C34.8485 43.9507 37.2727 41.4013 37.2727 39.0559C37.2727 37.6283 36.4646 35.9967 33.7374 35.3849L24.6465 33.0395C17.3737 31.204 16.0606 27.023 16.0606 23.25C16.0606 15.398 23.2323 12.5428 30 12.5428C36.2626 12.5428 43.7374 16.0099 43.7374 20.8026C43.7374 22.8421 42.0202 23.9638 40.101 23.9638C36.3636 23.9638 36.9697 18.6612 29.4949 18.6612C25.7576 18.6612 23.8384 20.3947 23.8384 22.8421C23.8384 25.2895 26.7677 26.1053 29.2929 26.7171L35.9596 28.2467C43.3333 29.8783 45.2525 34.2632 45.2525 38.4441C45.2525 44.7664 40.303 49.7632 30.6061 49.7632ZM58.7879 36.0987C59.0909 34.4671 59.1919 32.7336 59.1919 31C59.1919 14.8882 46.3636 1.83553 30.505 1.83553C28.7879 1.83553 27.1717 1.9375 25.5555 2.24342C23.0303 0.81579 20.202 0 17.0707 0C7.67676 0 0 7.75 0 17.3355C0 20.4967 0.80808 23.352 2.22222 25.9013C1.91919 27.5329 1.81818 29.2664 1.81818 31C1.81818 47.1118 14.6465 60.1645 30.505 60.1645C32.2222 60.1645 33.8384 60.0625 35.4545 59.7566C37.9798 61.1842 40.8081 62 43.9394 62C53.3333 62 61.0101 54.25 61.0101 44.6645C61.0101 41.6053 60.202 38.648 58.7879 36.0987Z" fill="white"/>
</svg>
