<svg width="200" height="140" viewBox="0 0 200 140" fill="none" xmlns="http://www.w3.org/2000/svg">
<mask id="mask0_170_330" style="mask-type:alpha" maskUnits="userSpaceOnUse" x="0" y="0" width="200" height="140">
<path d="M0 0H200V140H0V0Z" fill="#FFFFFE"/>
</mask>
<g mask="url(#mask0_170_330)">
<path fill-rule="evenodd" clip-rule="evenodd" d="M83.0443 15.3262C89.5001 8.59145 98.4854 4.42093 108.412 4.42093C121.647 4.42093 133.118 11.7894 139.294 22.7683C144.777 20.3122 150.715 19.0442 156.721 19.0472C180.544 19.0472 199.882 38.5736 199.882 62.6683C199.882 86.763 180.544 106.289 156.721 106.289C153.809 106.289 150.971 105.996 148.191 105.442C142.787 115.095 132.456 121.653 120.691 121.653C115.901 121.662 111.173 120.573 106.868 118.469C101.39 131.364 88.6325 140.427 73.7795 140.427C58.2648 140.427 45.1031 130.627 40.0295 116.848C37.7714 117.326 35.4697 117.566 33.1619 117.565C14.706 117.565 -0.220459 102.386 -0.220459 83.7435C-0.220459 71.2171 6.50013 60.3119 16.4707 54.4171C14.3555 49.5341 13.2667 44.2667 13.2722 38.9435C13.2722 17.4277 30.6987 0.0381927 52.1693 0.0381927C64.7428 0.0381927 75.9928 6.04346 83.0516 15.3645" fill="#FFFFFE"/>
<path fill-rule="evenodd" clip-rule="evenodd" d="M28.9266 72.7998C28.8008 73.1285 28.9714 73.197 29.0119 73.2552C29.3876 73.5278 29.7692 73.7253 30.1516 73.9471C32.1957 75.0302 34.1222 75.3471 36.1369 75.3471C40.2398 75.3471 42.7913 73.1587 42.7913 69.6366V69.5673C42.7913 66.3104 39.9089 65.1241 37.2178 64.2768L36.8655 64.1626C34.8288 63.5009 33.0714 62.9247 33.0714 61.5836V61.5151C33.0714 60.3656 34.1008 59.5182 35.6891 59.5182C37.4538 59.5182 39.5567 60.107 40.9023 60.8519C40.9023 60.8519 41.3008 61.1098 41.4457 60.7244C41.5244 60.5159 42.2104 58.676 42.2839 58.4697C42.3619 58.2538 42.2251 58.091 42.0847 58.007C40.5405 57.0638 38.4082 56.4228 36.2023 56.4228L35.7928 56.4242C32.0354 56.4242 29.4104 58.7011 29.4104 61.9579V62.0279C29.4104 65.4616 32.3075 66.5816 35.0133 67.3553L35.4486 67.4909C37.4192 68.098 39.1251 68.6256 39.1251 70.0109V70.0801C39.1251 71.3549 38.0148 72.3054 36.2354 72.3054C35.5435 72.3054 33.3383 72.2936 30.9486 70.7801C30.6597 70.6114 30.495 70.4898 30.2722 70.3535C30.1545 70.282 29.8604 70.1531 29.7325 70.5392L28.9236 72.7939L28.9266 72.7998ZM88.9972 72.7939C88.8714 73.1226 89.042 73.1911 89.0839 73.2493C89.4582 73.5219 89.8413 73.7194 90.2236 73.9412C92.2678 75.0243 94.1942 75.3412 96.2089 75.3412C100.312 75.3412 102.863 73.1528 102.863 69.6307V69.5614C102.863 66.3046 99.9883 65.1182 97.2898 64.2709L96.9376 64.1567C94.9008 63.495 93.1435 62.9188 93.1435 61.5777V61.5092C93.1435 60.3597 94.1729 59.5123 95.7611 59.5123C97.5258 59.5123 99.6214 60.1011 100.974 60.846C100.974 60.846 101.373 61.1039 101.518 60.7186C101.596 60.51 102.283 58.6701 102.349 58.4638C102.428 58.2479 102.291 58.0851 102.151 58.0011C100.607 57.0579 98.4744 56.4169 96.2685 56.4169L95.8582 56.4183C92.1008 56.4183 89.4758 58.6952 89.4758 61.952V62.022C89.4758 65.4557 92.3729 66.5757 95.0788 67.3494L95.5133 67.485C97.4913 68.0921 99.1898 68.6197 99.1898 70.005V70.0742C99.1898 71.349 98.0795 72.2995 96.3001 72.2995C95.6067 72.2995 93.3957 72.2877 91.0133 70.7742C90.7244 70.6055 90.5553 70.4891 90.3361 70.3476C90.2619 70.3004 89.9155 70.1649 89.7972 70.5333L88.9883 72.788L88.9972 72.7939ZM130.018 65.8912C130.018 67.8807 129.647 69.4501 128.922 70.5628C128.199 71.6607 127.106 72.1986 125.584 72.1986C124.062 72.1986 122.974 71.6651 122.26 70.5701C121.542 69.4649 121.18 67.888 121.18 65.8986C121.18 63.9091 121.544 62.347 122.26 61.2491C122.972 60.1586 124.055 59.6354 125.584 59.6354C127.113 59.6354 128.202 60.1637 128.922 61.2491C129.652 62.347 130.018 63.9091 130.018 65.8986V65.8912ZM133.444 62.207C133.107 61.0649 132.584 60.0628 131.885 59.2228C131.186 58.3828 130.305 57.7049 129.253 57.2186C128.209 56.7286 126.974 56.4817 125.577 56.4817C124.18 56.4817 122.952 56.73 121.9 57.2186C120.856 57.7078 119.966 58.3828 119.268 59.2228C118.571 60.0628 118.047 61.0649 117.709 62.207C117.374 63.3417 117.205 64.5796 117.205 65.8986C117.205 67.2175 117.374 68.4554 117.709 69.5901C118.045 70.7322 118.569 71.7343 119.268 72.5743C119.967 73.4143 120.856 74.0849 121.9 74.5638C122.952 75.0413 124.187 75.2844 125.577 75.2844C126.966 75.2844 128.202 75.0413 129.246 74.5638C130.29 74.0863 131.18 73.4143 131.878 72.5743C132.576 71.7343 133.099 70.7322 133.437 69.5901C133.771 68.4554 133.941 67.2175 133.941 65.8986C133.941 64.587 133.771 63.3417 133.437 62.207H133.444ZM161.599 71.6386C161.486 71.3048 161.161 71.4308 161.161 71.4308C160.663 71.6216 160.132 71.7984 159.566 71.8869C158.995 71.9768 158.36 72.0217 157.691 72.0217C156.036 72.0217 154.713 71.5273 153.771 70.548C152.823 69.568 152.293 67.9912 152.301 65.8543C152.306 63.9091 152.775 62.4501 153.617 61.3301C154.448 60.2249 155.727 59.6501 157.419 59.6501C158.83 59.6501 159.911 59.8144 161.043 60.1696C161.043 60.1696 161.312 60.2868 161.441 59.9323C161.741 59.0997 161.963 58.5029 162.286 57.5892C162.377 57.3276 162.154 57.2171 162.072 57.1854C161.628 57.0115 160.58 56.7263 159.785 56.6062C159.043 56.4928 158.182 56.4338 157.212 56.4338C155.771 56.4338 154.491 56.6807 153.396 57.1699C152.3 57.6584 151.374 58.3341 150.638 59.1741C149.903 60.0141 149.344 61.0162 148.969 62.1583C148.598 63.2931 148.41 64.5383 148.41 65.8573C148.41 68.7015 149.175 71.0078 150.69 72.6952C152.205 74.3899 154.484 75.2447 157.455 75.2447C159.212 75.2447 161.013 74.8888 162.307 74.3752C162.307 74.3752 162.555 74.2558 162.447 73.967L161.602 71.6386H161.599ZM167.594 63.9754C167.758 62.8701 168.06 61.9491 168.535 61.2343C169.246 60.1438 170.33 59.547 171.852 59.547C173.374 59.547 174.381 60.1468 175.102 61.2343C175.58 61.9528 175.788 62.907 175.866 63.9754L167.557 63.9739L167.594 63.9754ZM179.138 61.5438C178.846 60.4459 178.124 59.3333 177.653 58.8249C176.903 58.0217 176.175 57.4543 175.447 57.1449C174.396 56.697 173.266 56.4672 172.124 56.4692C170.675 56.4692 169.359 56.7146 168.293 57.2134C167.227 57.7159 166.33 58.3997 165.624 59.2544C164.919 60.1092 164.388 61.1187 164.05 62.2755C163.712 63.4176 163.541 64.6702 163.541 65.9818C163.541 67.3229 163.718 68.5681 164.067 69.6955C164.419 70.8302 164.986 71.825 165.751 72.6502C166.516 73.4829 167.494 74.1313 168.67 74.5881C169.839 75.0413 171.258 75.2763 172.883 75.2712C176.236 75.2601 178.001 74.5122 178.721 74.107C178.85 74.0348 178.971 73.9102 178.82 73.5514L178.063 71.4219C177.946 71.1043 177.626 71.2193 177.626 71.2193C176.795 71.5302 175.619 72.0888 172.861 72.0814C171.06 72.0784 169.729 71.5457 168.891 70.7109C168.038 69.8561 167.611 68.6109 167.545 66.8424L179.163 66.8513C179.163 66.8513 179.468 66.8483 179.5 66.5492C179.513 66.4254 179.898 64.1618 179.154 61.546L179.138 61.5438ZM74.7266 63.9754C74.8906 62.8701 75.1935 61.9491 75.6678 61.2343C76.3795 60.1438 77.4619 59.547 78.9839 59.547C80.506 59.547 81.5133 60.1468 82.2339 61.2343C82.7111 61.9528 82.92 62.907 82.9986 63.9754L74.6898 63.9739L74.7266 63.9754ZM86.2707 61.5438C85.9795 60.4459 85.256 59.3333 84.7854 58.8249C84.0354 58.0217 83.3075 57.4543 82.5795 57.1449C81.5286 56.697 80.398 56.4672 79.256 56.4692C77.8075 56.4692 76.4913 56.7146 75.4251 57.2134C74.3589 57.7159 73.4619 58.3997 72.756 59.2544C72.0523 60.1092 71.5207 61.1187 71.1825 62.2755C70.845 63.4176 70.6751 64.6702 70.6751 65.9818C70.6751 67.3229 70.8508 68.5681 71.2016 69.6955C71.553 70.8302 72.1207 71.825 72.8781 72.6502C73.6428 73.4829 74.6207 74.1313 75.7972 74.5881C76.9663 75.0413 78.378 75.2763 80.0104 75.2712C83.3633 75.2601 85.1281 74.5122 85.8486 74.107C85.9766 74.0348 86.0986 73.9102 85.9464 73.5514L85.1891 71.4219C85.0722 71.1043 84.7516 71.2193 84.7516 71.2193C83.9207 71.5302 82.7442 72.0888 79.9869 72.0814C78.1928 72.0784 76.8545 71.5457 76.0163 70.7109C75.1633 69.8561 74.7369 68.6109 74.6707 66.8424L86.2883 66.8513C86.2883 66.8513 86.5942 66.8483 86.6258 66.5492C86.6383 66.4254 87.0236 64.1618 86.2788 61.546L86.2707 61.5438ZM49.653 71.5649C49.1979 71.2009 49.1347 71.1117 48.9839 70.8752C48.7538 70.5193 48.6361 70.0131 48.6361 69.3647C48.6361 68.3478 48.9744 67.611 49.6729 67.1173C49.6655 67.1188 50.6729 66.2478 53.0406 66.2773C54.0944 66.2962 55.1458 66.3861 56.1876 66.5462V71.8294H56.1891C56.1891 71.8294 54.7185 72.147 53.0567 72.2472C50.6964 72.3894 49.6523 71.5663 49.6597 71.5686L49.653 71.5649ZM54.2707 63.3859C53.8001 63.3513 53.1898 63.3343 52.4619 63.3343C51.4692 63.3343 50.506 63.4581 49.6089 63.7013C48.7045 63.9459 47.8883 64.3247 47.1898 64.8287C46.4894 65.3294 45.9132 65.9849 45.506 66.7444C45.095 67.5108 44.8854 68.4097 44.8854 69.4266C44.8854 70.4581 45.0641 71.3497 45.417 72.0792C45.7629 72.8027 46.2835 73.4283 46.9317 73.8992C47.5766 74.3693 48.3729 74.7171 49.292 74.9234C50.2038 75.1319 51.2332 75.2373 52.3656 75.2373C53.5567 75.2373 54.7406 75.1371 55.8876 74.9433C56.8646 74.7744 57.8378 74.5848 58.8067 74.3744C59.1935 74.2853 59.6229 74.1681 59.6229 74.1681C59.9097 74.0952 59.8876 73.7879 59.8876 73.7879L59.881 63.1774C59.881 60.849 59.2604 59.1174 58.0354 58.049C56.8148 56.9806 55.0281 56.4427 52.7119 56.4427C51.8442 56.4427 50.4398 56.5606 49.6016 56.7293C49.6016 56.7293 47.0722 57.2215 46.0281 58.0409C46.0281 58.0409 45.7986 58.1823 45.9236 58.5029L46.7472 60.7134C46.8494 61 47.128 60.902 47.128 60.902C47.128 60.902 47.2156 60.8674 47.3185 60.8062C49.5464 59.5904 52.37 59.6273 52.37 59.6273C53.62 59.6273 54.5905 59.8815 55.2376 60.3789C55.8707 60.8659 56.1935 61.602 56.1935 63.1494V63.6409C55.2008 63.4965 54.2817 63.4132 54.2817 63.4132L54.2707 63.3859ZM147.653 57.3954C147.67 57.3565 147.679 57.3147 147.679 57.2724C147.679 57.2301 147.671 57.1881 147.655 57.1491C147.638 57.11 147.614 57.0747 147.584 57.0451C147.554 57.0155 147.518 56.9923 147.479 56.9769C147.281 56.9017 146.295 56.6932 145.538 56.646C144.082 56.5547 143.273 56.8008 142.545 57.1279C141.826 57.4529 141.03 57.9753 140.589 58.5795L140.588 57.1648C140.588 56.9702 140.45 56.8133 140.255 56.8133H137.284C137.091 56.8133 136.952 56.9702 136.952 57.1648V74.4806C136.952 74.5741 136.989 74.6638 137.055 74.7299C137.121 74.7961 137.21 74.8333 137.304 74.8335H140.348C140.441 74.8333 140.531 74.796 140.596 74.7299C140.662 74.6637 140.699 74.574 140.699 74.4806V65.7858C140.699 64.6216 140.827 63.4648 141.082 62.7353C141.334 62.0139 141.676 61.4384 142.097 61.0258C142.499 60.6273 142.991 60.3316 143.531 60.1637C144.038 60.0179 144.563 59.944 145.09 59.9441C145.696 59.9441 146.362 60.1003 146.362 60.1003C146.585 60.1254 146.71 59.9883 146.785 59.7864C146.985 59.2552 147.55 57.6643 147.66 57.3475" fill="black"/>
<path fill-rule="evenodd" clip-rule="evenodd" d="M119.221 49.404C118.845 49.29 118.462 49.199 118.075 49.1313C117.554 49.0442 117.027 49.0033 116.499 49.009C114.401 49.009 112.747 49.6029 111.586 50.776C110.433 51.9402 109.649 53.7138 109.255 56.0473L109.113 56.835H106.48C106.48 56.835 106.159 56.8218 106.091 57.1732L105.659 59.5901C105.629 59.8214 105.728 59.9659 106.037 59.9644H108.6L105.999 74.5119C105.796 75.6834 105.563 76.6472 105.305 77.3774C105.05 78.0981 104.802 78.6382 104.496 79.0302C104.199 79.4096 103.918 79.6889 103.434 79.8518C103.034 79.9866 102.574 80.0485 102.069 80.0485C101.788 80.0485 101.415 80.0013 101.139 79.9461C100.863 79.8915 100.72 79.8296 100.513 79.7427C100.513 79.7427 100.213 79.6277 100.094 79.9299C99.9979 80.1767 99.3148 82.0593 99.2339 82.2922C99.1516 82.5221 99.267 82.7033 99.4126 82.7556C99.7538 82.878 100.007 82.9561 100.472 83.0659C101.118 83.2184 101.662 83.228 102.171 83.228C103.239 83.228 104.212 83.0776 105.018 82.7859C105.83 82.4919 106.537 81.9798 107.162 81.2864C107.838 80.5385 108.263 79.7552 108.669 78.6868C109.071 77.628 109.414 76.3134 109.688 74.7815L112.302 59.9644H116.122C116.122 59.9644 116.444 59.9762 116.511 59.6262L116.943 57.2093C116.974 56.978 116.875 56.8335 116.565 56.835H112.857C112.875 56.751 113.043 55.4439 113.469 54.2133C113.651 53.688 113.993 53.2643 114.282 52.9732C114.553 52.696 114.886 52.4883 115.254 52.3675C115.657 52.2427 116.077 52.182 116.499 52.1877C116.848 52.1877 117.191 52.2298 117.452 52.2843C117.811 52.3609 117.951 52.4014 118.045 52.4294C118.423 52.5451 118.474 52.4331 118.548 52.2496L119.435 49.8092C119.526 49.5469 119.304 49.4364 119.221 49.404V49.404ZM67.4023 74.5428C67.4023 74.7373 67.2641 74.8957 67.07 74.8957H63.9942C63.7994 74.8957 63.6611 74.7373 63.6611 74.5428V49.7348C63.6611 49.541 63.7994 49.3841 63.9942 49.3841H67.07C67.2641 49.3841 67.4023 49.541 67.4023 49.7348V74.5428" fill="black"/>
</g>
</svg>
